<svg width="120" height="120" viewBox="0 0 120 120" fill="none" xmlns="http://www.w3.org/2000/svg">
<rect width="120" height="120" fill="#1D1B1B"/>
<path d="M52.6649 38.9998C52.6649 34.6772 56.1703 31.1721 60.4955 31.1721C64.8207 31.1721 68.328 34.6772 68.328 38.9998C68.328 43.3225 64.8207 46.8276 60.4955 46.8276C56.1703 46.8276 52.6649 43.3225 52.6649 38.9998ZM48.4308 38.9998C48.4308 45.6592 53.8322 51.0573 60.4955 51.0573C67.1588 51.0573 72.5602 45.6592 72.5602 38.9998C72.5602 32.3405 67.1588 26.9424 60.4955 26.9424C53.8322 26.9424 48.4308 32.3405 48.4308 38.9998ZM70.2183 26.4643C70.2181 27.0216 70.3832 27.5665 70.6928 28.03C71.0025 28.4935 71.4427 28.8548 71.9578 29.0683C72.4729 29.2818 73.0397 29.3378 73.5867 29.2293C74.1337 29.1208 74.6362 28.8526 75.0306 28.4587C75.4251 28.0648 75.6938 27.5628 75.8028 27.0163C75.9118 26.4697 75.8562 25.9032 75.643 25.3882C75.4298 24.8732 75.0686 24.433 74.6051 24.1232C74.1416 23.8134 73.5965 23.6479 73.0389 23.6477H73.0378C72.2903 23.648 71.5735 23.9449 71.0449 24.473C70.5162 25.0011 70.219 25.7173 70.2183 26.4643ZM51.0033 58.1131C48.7126 58.0089 47.4675 57.6275 46.6401 57.3054C45.5431 56.8786 44.7605 56.3703 43.9376 55.549C43.1147 54.7277 42.6053 53.9462 42.1801 52.8499C41.8576 52.0234 41.476 50.7787 41.3719 48.4893C41.2579 46.0142 41.2352 45.2707 41.2352 39C41.2352 32.7294 41.2598 31.9879 41.3719 29.5107C41.4762 27.2214 41.8606 25.9791 42.1801 25.1501C42.6072 24.0538 43.1158 23.2716 43.9376 22.4492C44.7593 21.6268 45.5413 21.1177 46.6401 20.6928C47.4671 20.3704 48.7126 19.9891 51.0033 19.885C53.4799 19.7712 54.2239 19.7485 60.4955 19.7485C66.7671 19.7485 67.5118 19.7731 69.9905 19.885C72.2812 19.9893 73.5242 20.3734 74.3537 20.6928C75.4507 21.1177 76.2333 21.6279 77.0562 22.4492C77.8792 23.2705 78.3867 24.0538 78.8137 25.1501C79.1363 25.9767 79.5178 27.2214 79.622 29.5107C79.7359 31.9879 79.7586 32.7294 79.7586 39C79.7586 45.2707 79.7359 46.0121 79.622 48.4893C79.5176 50.7787 79.1342 52.023 78.8137 52.8499C78.3867 53.9462 77.878 54.7284 77.0562 55.549C76.2345 56.3695 75.4507 56.8786 74.3537 57.3054C73.5267 57.6277 72.2812 58.0091 69.9905 58.1131C67.5139 58.227 66.7699 58.2497 60.4955 58.2497C54.2211 58.2497 53.4792 58.227 51.0033 58.1131ZM50.8088 15.6606C48.3075 15.7745 46.5984 16.1708 45.1058 16.7513C43.5599 17.3507 42.2513 18.1549 40.9437 19.4597C39.636 20.7646 38.8334 22.0744 38.2336 23.6193C37.6528 25.112 37.2562 26.8192 37.1423 29.3189C37.0265 31.8226 37 32.623 37 38.9998C37 45.3766 37.0265 46.1771 37.1423 48.6808C37.2562 51.1807 37.6528 52.8877 38.2336 54.3804C38.8334 55.9243 39.6362 57.2357 40.9437 58.5399C42.2511 59.8442 43.5599 60.6473 45.1058 61.2484C46.6012 61.8288 48.3075 62.2252 50.8088 62.339C53.3153 62.4529 54.1149 62.4813 60.4955 62.4813C66.8761 62.4813 67.677 62.4548 70.1822 62.339C72.6836 62.2252 74.3917 61.8288 75.8852 61.2484C77.4301 60.6473 78.7397 59.8448 80.0473 58.5399C81.355 57.2351 82.1559 55.9243 82.7574 54.3804C83.3382 52.8877 83.7367 51.1805 83.8487 48.6808C83.9626 46.1752 83.9891 45.3766 83.9891 38.9998C83.9891 32.623 83.9626 31.8226 83.8487 29.3189C83.7348 26.819 83.3382 25.1111 82.7574 23.6193C82.1559 22.0754 81.3529 20.7666 80.0473 19.4597C78.7417 18.1529 77.4301 17.3507 75.8871 16.7513C74.3917 16.1708 72.6835 15.7726 70.1841 15.6606C67.6789 15.5468 66.878 15.5184 60.4974 15.5184C54.1167 15.5184 53.3153 15.5449 50.8088 15.6606Z" fill="url(#paint0_radial_91_157)"/>
<path d="M52.6649 38.9998C52.6649 34.6772 56.1703 31.1721 60.4955 31.1721C64.8207 31.1721 68.328 34.6772 68.328 38.9998C68.328 43.3225 64.8207 46.8276 60.4955 46.8276C56.1703 46.8276 52.6649 43.3225 52.6649 38.9998ZM48.4308 38.9998C48.4308 45.6592 53.8322 51.0573 60.4955 51.0573C67.1588 51.0573 72.5602 45.6592 72.5602 38.9998C72.5602 32.3405 67.1588 26.9424 60.4955 26.9424C53.8322 26.9424 48.4308 32.3405 48.4308 38.9998ZM70.2183 26.4643C70.2181 27.0216 70.3832 27.5665 70.6928 28.03C71.0025 28.4935 71.4427 28.8548 71.9578 29.0683C72.4729 29.2818 73.0397 29.3378 73.5867 29.2293C74.1337 29.1208 74.6362 28.8526 75.0306 28.4587C75.4251 28.0648 75.6938 27.5628 75.8028 27.0163C75.9118 26.4697 75.8562 25.9032 75.643 25.3882C75.4298 24.8732 75.0686 24.433 74.6051 24.1232C74.1416 23.8134 73.5965 23.6479 73.0389 23.6477H73.0378C72.2903 23.648 71.5735 23.9449 71.0449 24.473C70.5162 25.0011 70.219 25.7173 70.2183 26.4643ZM51.0033 58.1131C48.7126 58.0089 47.4675 57.6275 46.6401 57.3054C45.5431 56.8786 44.7605 56.3703 43.9376 55.549C43.1147 54.7277 42.6053 53.9462 42.1801 52.8499C41.8576 52.0234 41.476 50.7787 41.3719 48.4893C41.2579 46.0142 41.2352 45.2707 41.2352 39C41.2352 32.7294 41.2598 31.9879 41.3719 29.5107C41.4762 27.2214 41.8606 25.9791 42.1801 25.1501C42.6072 24.0538 43.1158 23.2716 43.9376 22.4492C44.7593 21.6268 45.5413 21.1177 46.6401 20.6928C47.4671 20.3704 48.7126 19.9891 51.0033 19.885C53.4799 19.7712 54.2239 19.7485 60.4955 19.7485C66.7671 19.7485 67.5118 19.7731 69.9905 19.885C72.2812 19.9893 73.5242 20.3734 74.3537 20.6928C75.4507 21.1177 76.2333 21.6279 77.0562 22.4492C77.8792 23.2705 78.3867 24.0538 78.8137 25.1501C79.1363 25.9767 79.5178 27.2214 79.622 29.5107C79.7359 31.9879 79.7586 32.7294 79.7586 39C79.7586 45.2707 79.7359 46.0121 79.622 48.4893C79.5176 50.7787 79.1342 52.023 78.8137 52.8499C78.3867 53.9462 77.878 54.7284 77.0562 55.549C76.2345 56.3695 75.4507 56.8786 74.3537 57.3054C73.5267 57.6277 72.2812 58.0091 69.9905 58.1131C67.5139 58.227 66.7699 58.2497 60.4955 58.2497C54.2211 58.2497 53.4792 58.227 51.0033 58.1131ZM50.8088 15.6606C48.3075 15.7745 46.5984 16.1708 45.1058 16.7513C43.5599 17.3507 42.2513 18.1549 40.9437 19.4597C39.636 20.7646 38.8334 22.0744 38.2336 23.6193C37.6528 25.112 37.2562 26.8192 37.1423 29.3189C37.0265 31.8226 37 32.623 37 38.9998C37 45.3766 37.0265 46.1771 37.1423 48.6808C37.2562 51.1807 37.6528 52.8877 38.2336 54.3804C38.8334 55.9243 39.6362 57.2357 40.9437 58.5399C42.2511 59.8442 43.5599 60.6473 45.1058 61.2484C46.6012 61.8288 48.3075 62.2252 50.8088 62.339C53.3153 62.4529 54.1149 62.4813 60.4955 62.4813C66.8761 62.4813 67.677 62.4548 70.1822 62.339C72.6836 62.2252 74.3917 61.8288 75.8852 61.2484C77.4301 60.6473 78.7397 59.8448 80.0473 58.5399C81.355 57.2351 82.1559 55.9243 82.7574 54.3804C83.3382 52.8877 83.7367 51.1805 83.8487 48.6808C83.9626 46.1752 83.9891 45.3766 83.9891 38.9998C83.9891 32.623 83.9626 31.8226 83.8487 29.3189C83.7348 26.819 83.3382 25.1111 82.7574 23.6193C82.1559 22.0754 81.3529 20.7666 80.0473 19.4597C78.7417 18.1529 77.4301 17.3507 75.8871 16.7513C74.3917 16.1708 72.6835 15.7726 70.1841 15.6606C67.6789 15.5468 66.878 15.5184 60.4974 15.5184C54.1167 15.5184 53.3153 15.5449 50.8088 15.6606Z" fill="url(#paint1_radial_91_157)"/>
<path d="M7.06641 98.0762C6.9987 98.0085 6.96484 97.8815 6.96484 97.6953C6.96484 97.4583 6.9987 97.3398 7.06641 97.3398C7.21875 97.3398 7.42188 97.3229 7.67578 97.2891C7.92969 97.2383 8.16667 97.1706 8.38672 97.0859C8.60677 97.0013 8.73372 96.9167 8.76758 96.832C8.83529 96.5951 8.8776 96.2904 8.89453 95.918C8.92839 95.5456 8.94531 95.097 8.94531 94.5723V84.7207C8.94531 84.196 8.92839 83.7474 8.89453 83.375C8.8776 82.9857 8.83529 82.681 8.76758 82.4609C8.73372 82.3594 8.60677 82.2747 8.38672 82.207C8.16667 82.1224 7.92969 82.0547 7.67578 82.0039C7.42188 81.9531 7.21875 81.9277 7.06641 81.9277C6.9987 81.9277 6.96484 81.8177 6.96484 81.5977C6.96484 81.3945 6.9987 81.2591 7.06641 81.1914L10.1133 81.3184C10.2487 81.3184 10.5618 81.3099 11.0527 81.293C11.5436 81.2591 12.2122 81.2253 13.0586 81.1914C13.0924 81.3268 13.1094 81.4538 13.1094 81.5723C13.1094 81.8092 13.0755 81.9277 13.0078 81.9277C12.9062 81.9277 12.7285 81.9616 12.4746 82.0293C12.2207 82.0801 11.9837 82.1478 11.7637 82.2324C11.5436 82.3001 11.4167 82.3763 11.3828 82.4609C11.2305 83.0365 11.1543 83.8236 11.1543 84.8223V94.4707C11.1543 95.4525 11.2305 96.2396 11.3828 96.832C11.4167 96.8997 11.5436 96.9759 11.7637 97.0605C11.9837 97.1452 12.2207 97.2129 12.4746 97.2637C12.7285 97.3145 12.9062 97.3398 13.0078 97.3398C13.0755 97.3398 13.1094 97.4668 13.1094 97.7207C13.1094 97.8223 13.0924 97.9408 13.0586 98.0762C12.2122 98.0423 11.5436 98.0169 11.0527 98C10.5618 97.9661 10.2487 97.9492 10.1133 97.9492L7.06641 98.0762ZM15.6921 98.0762C15.6244 98.0085 15.5905 97.8646 15.5905 97.6445C15.5905 97.4414 15.6244 97.3398 15.6921 97.3398C15.8275 97.3398 16.0137 97.3145 16.2507 97.2637C16.4877 97.2129 16.7077 97.1452 16.9109 97.0605C17.114 96.9759 17.224 96.8997 17.2409 96.832C17.3086 96.5951 17.351 96.3242 17.3679 96.0195C17.4017 95.7148 17.4187 95.3932 17.4187 95.0547V90.2559C17.4187 89.6126 17.3002 89.1556 17.0632 88.8848C16.8939 88.6816 16.6908 88.5462 16.4538 88.4785C16.2338 88.4108 16.0307 88.377 15.8445 88.377C15.6752 88.36 15.5905 88.3346 15.5905 88.3008C15.5905 87.8945 15.6413 87.6829 15.7429 87.666C16.64 87.5306 17.3679 87.4121 17.9265 87.3105C18.4851 87.1921 18.8321 87.1159 18.9675 87.082L19.3737 86.9805C19.4415 86.9635 19.4838 87.0312 19.5007 87.1836C19.5176 87.3359 19.5176 87.446 19.5007 87.5137C19.4668 87.7507 19.4415 87.9538 19.4245 88.123C19.4076 88.2923 19.3991 88.4277 19.3991 88.5293C19.3991 88.597 19.4161 88.6309 19.4499 88.6309C19.4668 88.6309 19.4922 88.6139 19.5261 88.5801C19.9154 88.1738 20.4402 87.793 21.1003 87.4375C21.7774 87.0651 22.4206 86.8789 23.03 86.8789C24.2149 86.8789 25.0443 87.3021 25.5183 88.1484C25.9922 88.9948 26.2292 90.3659 26.2292 92.2617V94.5723C26.2292 95.0632 26.2461 95.4948 26.28 95.8672C26.3139 96.2396 26.3646 96.5612 26.4323 96.832C26.4662 96.8997 26.5847 96.9759 26.7878 97.0605C26.9909 97.1452 27.211 97.2129 27.448 97.2637C27.6849 97.3145 27.8542 97.3398 27.9558 97.3398C28.0066 97.3398 28.0404 97.4414 28.0573 97.6445C28.0743 97.8477 28.0658 97.9915 28.032 98.0762L25.3152 97.9492L22.6491 98.0762C22.5814 98.0085 22.5476 97.8646 22.5476 97.6445C22.5476 97.4414 22.5814 97.3398 22.6491 97.3398C22.7846 97.3398 22.9623 97.3145 23.1823 97.2637C23.4024 97.2129 23.6055 97.1452 23.7917 97.0605C23.9779 96.9759 24.0795 96.8997 24.0964 96.832C24.1641 96.5951 24.2064 96.3242 24.2234 96.0195C24.2572 95.7148 24.2741 95.3932 24.2741 95.0547V92.5156C24.2741 90.9414 24.071 89.8665 23.6648 89.291C23.2585 88.7155 22.5984 88.4277 21.6843 88.4277C21.3288 88.4277 20.9734 88.5293 20.6179 88.7324C20.2624 88.9186 19.9662 89.1387 19.7292 89.3926C19.4922 89.6465 19.3737 89.8835 19.3737 90.1035V94.5723C19.3737 95.0632 19.3907 95.4948 19.4245 95.8672C19.4584 96.2396 19.5092 96.5612 19.5769 96.832C19.6107 96.8997 19.7292 96.9759 19.9323 97.0605C20.1355 97.1452 20.3555 97.2129 20.5925 97.2637C20.8295 97.3145 20.9987 97.3398 21.1003 97.3398C21.1511 97.3398 21.1849 97.4414 21.2019 97.6445C21.2188 97.8477 21.2103 97.9915 21.1765 98.0762L18.4597 97.9492L15.6921 98.0762ZM33.8647 98.2793C33.3399 98.2793 32.866 98.2201 32.4428 98.1016C32.0196 97.9831 31.5034 97.8815 30.894 97.7969C30.8263 97.6107 30.7586 97.3568 30.6909 97.0352C30.6232 96.7135 30.5639 96.375 30.5131 96.0195C30.4793 95.6641 30.4623 95.3763 30.4623 95.1562C30.5978 95.0547 30.6993 95.0039 30.767 95.0039C31.0209 95.0039 31.1564 95.0547 31.1733 95.1562C31.241 95.4948 31.4103 95.8333 31.6811 96.1719C31.9519 96.5104 32.282 96.7982 32.6713 97.0352C33.0607 97.2552 33.4584 97.3652 33.8647 97.3652C34.4064 97.3652 34.8465 97.2214 35.185 96.9336C35.5405 96.6289 35.7182 96.1973 35.7182 95.6387C35.7182 95.0462 35.4897 94.5553 35.0327 94.166C34.6772 93.8783 34.3725 93.6751 34.1186 93.5566C33.8816 93.4212 33.6446 93.3027 33.4077 93.2012C33.1876 93.0827 32.9083 92.9219 32.5698 92.7188C31.2495 91.957 30.5893 91.0514 30.5893 90.002C30.5893 89.3926 30.7586 88.8594 31.0971 88.4023C31.4357 87.9284 31.8842 87.5645 32.4428 87.3105C33.0183 87.0397 33.6277 86.9043 34.2709 86.9043C34.4571 86.9043 34.6687 86.9212 34.9057 86.9551C35.1427 86.972 35.4051 86.9974 35.6928 87.0312C35.9806 87.082 36.2176 87.1243 36.4037 87.1582C36.5899 87.1921 36.7423 87.2174 36.8608 87.2344C37.047 88.013 37.1485 88.8763 37.1655 89.8242C37.1655 89.9089 37.0554 89.9512 36.8354 89.9512C36.5984 89.9512 36.4715 89.8919 36.4545 89.7734C36.3699 89.2995 36.1245 88.8509 35.7182 88.4277C35.3289 88.0046 34.8803 87.793 34.3725 87.793C33.1537 87.793 32.5444 88.2923 32.5444 89.291C32.5444 89.5449 32.5698 89.7734 32.6205 89.9766C32.6883 90.1628 32.8321 90.3405 33.0522 90.5098C33.5769 90.916 34.1948 91.3223 34.9057 91.7285C35.6336 92.1348 36.2345 92.5156 36.7084 92.8711C37.4194 93.4128 37.7748 94.0475 37.7748 94.7754C37.7748 95.4355 37.5971 96.0365 37.2416 96.5781C36.8862 97.1029 36.4122 97.5176 35.8198 97.8223C35.2273 98.127 34.5756 98.2793 33.8647 98.2793ZM44.3185 98.1777C43.4722 98.1777 42.7612 97.8984 42.1857 97.3398C41.6271 96.7812 41.3478 95.9857 41.3478 94.9531V88.5039H39.8752C39.7905 88.5039 39.7482 88.3262 39.7482 87.9707C39.7482 87.8691 39.7567 87.8099 39.7736 87.793C40.2814 87.556 40.8146 87.1074 41.3732 86.4473C41.7625 85.9902 42.0503 85.5924 42.2365 85.2539C42.4396 84.9154 42.5412 84.7122 42.5412 84.6445C43.049 84.6445 43.3029 84.6868 43.3029 84.7715V87.2852L45.3088 87.3105H46.7306C46.866 87.3105 46.9338 87.3867 46.9338 87.5391C46.9338 87.8607 46.8491 88.1823 46.6798 88.5039H43.3029V94.7246C43.3029 95.4017 43.4722 95.9434 43.8107 96.3496C44.1662 96.7559 44.6232 96.959 45.1818 96.959C45.7065 96.959 46.2313 96.7982 46.756 96.4766C46.8068 96.4427 46.883 96.5189 46.9845 96.7051C47.0861 96.8743 47.1284 96.9674 47.1115 96.9844C46.8576 97.2552 46.4683 97.526 45.9435 97.7969C45.4188 98.0508 44.8771 98.1777 44.3185 98.1777ZM51.7509 98.1777C50.9722 98.1777 50.329 97.9746 49.8212 97.5684C49.3134 97.1452 49.0595 96.5189 49.0595 95.6895C49.0595 94.6738 49.7196 93.8275 51.0399 93.1504C51.6154 92.8626 52.1825 92.6341 52.7411 92.4648C53.3166 92.2956 53.8921 92.1009 54.4677 91.8809C54.62 91.8301 54.6962 91.7031 54.6962 91.5V89.5957C54.6962 89.054 54.5269 88.6393 54.1884 88.3516C53.8498 88.0469 53.4436 87.8945 52.9696 87.8945C52.4618 87.8945 52.0386 88.0723 51.7001 88.4277C51.3615 88.7663 51.1923 89.2148 51.1923 89.7734C51.1923 90.3659 50.8453 90.6621 50.1512 90.6621C49.6604 90.6621 49.3303 90.5013 49.161 90.1797C49.161 89.8242 49.3049 89.4603 49.5927 89.0879C49.8973 88.6986 50.2867 88.3431 50.7606 88.0215C51.2346 87.6999 51.7509 87.4375 52.3095 87.2344C52.885 87.0312 53.452 86.9297 54.0106 86.9297C54.9416 86.9297 55.6102 87.1582 56.0165 87.6152C56.4227 88.0553 56.6259 88.7747 56.6259 89.7734V95.6387C56.6259 95.9941 56.719 96.2904 56.9052 96.5273C57.0914 96.7643 57.3453 96.8828 57.6669 96.8828C57.8869 96.8828 58.1831 96.7643 58.5555 96.5273C58.6233 96.5273 58.6571 96.5951 58.6571 96.7305C58.6571 96.9505 58.6148 97.1283 58.5302 97.2637C57.8361 97.8561 57.2437 98.1523 56.7528 98.1523C56.3635 98.1523 55.9911 97.9915 55.6356 97.6699C55.2802 97.3483 55.0347 97.0098 54.8993 96.6543C54.8147 96.722 54.7046 96.8151 54.5692 96.9336C54.4507 97.0352 54.3492 97.1198 54.2645 97.1875C53.9091 97.4583 53.5197 97.6953 53.0966 97.8984C52.6903 98.0846 52.2417 98.1777 51.7509 98.1777ZM52.7157 96.7305C53.1897 96.7305 53.6382 96.5951 54.0614 96.3242C54.4846 96.0534 54.6962 95.7656 54.6962 95.4609V92.8457C54.2561 93.015 53.8329 93.1673 53.4266 93.3027C53.0373 93.4382 52.7242 93.5482 52.4872 93.6328C52.1825 93.7513 51.8863 93.9629 51.5985 94.2676C51.3277 94.5723 51.1923 94.9193 51.1923 95.3086C51.1923 95.8164 51.3446 96.1803 51.6493 96.4004C51.9709 96.6204 52.3264 96.7305 52.7157 96.7305ZM64.9977 103.764C64.2021 103.764 63.4404 103.662 62.7125 103.459C62.0016 103.256 61.426 102.943 60.9859 102.52C60.5458 102.096 60.3258 101.572 60.3258 100.945C60.3258 99.8958 61.1552 98.9987 62.8141 98.2539C62.357 98.1862 61.9339 97.9746 61.5445 97.6191C61.1552 97.2637 60.9605 96.832 60.9605 96.3242C60.9605 95.8841 61.1467 95.4271 61.5191 94.9531C61.9085 94.4792 62.3401 94.0898 62.8141 93.7852C62.4755 93.6497 62.1454 93.4212 61.8238 93.0996C61.5191 92.778 61.2652 92.3971 61.0621 91.957C60.859 91.5169 60.7574 91.0599 60.7574 90.5859C60.7574 89.9089 60.9521 89.3079 61.3414 88.7832C61.7307 88.2415 62.247 87.8184 62.8902 87.5137C63.5504 87.1921 64.2867 87.0312 65.0992 87.0312C65.7594 87.0312 66.4788 87.1413 67.2574 87.3613C68.0361 87.5814 68.7047 87.6914 69.2633 87.6914H70.7359C70.8375 87.7083 70.8883 87.9199 70.8883 88.3262C70.8883 88.5632 70.8375 88.6816 70.7359 88.6816H68.9332C68.8655 88.6816 68.8316 88.707 68.8316 88.7578L69.0855 89.3672C69.2717 89.7904 69.3648 90.1966 69.3648 90.5859C69.3648 91.1953 69.1786 91.7708 68.8063 92.3125C68.4339 92.8542 67.926 93.2943 67.2828 93.6328C66.6565 93.9714 65.9456 94.1406 65.15 94.1406C64.8792 94.1406 64.6253 94.1322 64.3883 94.1152C64.1513 94.0983 63.9313 94.0729 63.7281 94.0391C63.4065 94.276 63.1441 94.5215 62.941 94.7754C62.7548 95.0293 62.6617 95.2832 62.6617 95.5371C62.6617 95.9603 62.8987 96.2311 63.3727 96.3496C63.8466 96.4681 64.456 96.5273 65.2008 96.5273C66.2503 96.5443 67.1389 96.612 67.8668 96.7305C68.6116 96.832 69.1956 96.9759 69.6188 97.1621C70.4651 97.5684 70.8883 98.1693 70.8883 98.9648C70.8883 99.8281 70.6344 100.624 70.1266 101.352C69.6357 102.079 68.9417 102.655 68.0445 103.078C67.1643 103.518 66.1487 103.747 64.9977 103.764ZM65.1246 93.2773C65.7848 93.2773 66.3264 93.0234 66.7496 92.5156C67.1897 92.0078 67.4098 91.3984 67.4098 90.6875C67.4098 89.9089 67.1643 89.2487 66.6734 88.707C66.1995 88.1654 65.6409 87.8945 64.9977 87.8945C64.3375 87.8945 63.7874 88.1484 63.3473 88.6562C62.9241 89.1641 62.7125 89.7734 62.7125 90.4844C62.7125 91.263 62.9495 91.9232 63.4234 92.4648C63.9143 93.0065 64.4814 93.2773 65.1246 93.2773ZM65.734 102.824C66.4111 102.824 67.012 102.697 67.5367 102.443C68.0615 102.189 68.4677 101.859 68.7555 101.453C69.0602 101.047 69.2125 100.615 69.2125 100.158C69.2125 99.4473 68.8655 98.9733 68.1715 98.7363C67.4944 98.4824 66.1487 98.3555 64.1344 98.3555C63.999 98.3555 63.762 98.4316 63.4234 98.584C63.1018 98.7363 62.7971 98.9564 62.5094 99.2441C62.2385 99.5488 62.1031 99.9297 62.1031 100.387C62.1031 100.861 62.2809 101.284 62.6363 101.656C62.9918 102.029 63.4404 102.316 63.982 102.52C64.5406 102.723 65.1246 102.824 65.734 102.824ZM73.3441 98.0762C73.2764 98.0085 73.2425 97.8646 73.2425 97.6445C73.2425 97.4414 73.2764 97.3398 73.3441 97.3398C73.4795 97.3398 73.6657 97.3145 73.9027 97.2637C74.1396 97.2129 74.3597 97.1452 74.5628 97.0605C74.7659 96.9759 74.876 96.8997 74.8929 96.832C74.9606 96.5951 75.0029 96.3242 75.0198 96.0195C75.0537 95.7148 75.0706 95.3932 75.0706 95.0547V90.2559C75.0706 89.6126 74.9521 89.1556 74.7152 88.8848C74.5459 88.6816 74.3428 88.5462 74.1058 88.4785C73.8857 88.4108 73.6826 88.377 73.4964 88.377C73.3271 88.36 73.2425 88.3346 73.2425 88.3008C73.2425 87.8945 73.2933 87.6829 73.3948 87.666C75.2399 87.3783 76.3063 87.1921 76.5941 87.1074L77.0257 86.9805C77.0934 86.9635 77.1357 87.0312 77.1527 87.1836C77.1696 87.3359 77.1696 87.446 77.1527 87.5137L77.0003 88.7832C77.305 88.3262 77.7197 87.903 78.2445 87.5137C78.7861 87.1074 79.3193 86.9043 79.8441 86.9043C80.8258 86.9043 81.486 87.1497 81.8245 87.6406C81.8245 88.2331 81.7314 88.6647 81.5452 88.9355C81.359 89.2064 81.1305 89.3418 80.8597 89.3418C80.555 89.3418 80.2757 89.1979 80.0218 88.9102C79.7679 88.6224 79.4209 88.4785 78.9808 88.4785C78.6422 88.4785 78.3206 88.597 78.0159 88.834C77.7113 89.054 77.4658 89.3418 77.2796 89.6973C77.1103 90.0358 77.0257 90.3913 77.0257 90.7637V94.5723C77.0257 95.0632 77.0426 95.4948 77.0765 95.8672C77.1103 96.2396 77.1611 96.5612 77.2288 96.832C77.2627 96.8997 77.3812 96.9759 77.5843 97.0605C77.7874 97.1452 78.0075 97.2129 78.2445 97.2637C78.4984 97.3145 78.6761 97.3398 78.7777 97.3398C78.8284 97.3398 78.8623 97.4414 78.8792 97.6445C78.8961 97.8477 78.8877 97.9915 78.8538 98.0762L76.1116 97.9492L73.3441 98.0762ZM86.5147 98.1777C85.736 98.1777 85.0928 97.9746 84.585 97.5684C84.0772 97.1452 83.8233 96.5189 83.8233 95.6895C83.8233 94.6738 84.4834 93.8275 85.8037 93.1504C86.3793 92.8626 86.9463 92.6341 87.5049 92.4648C88.0804 92.2956 88.656 92.1009 89.2315 91.8809C89.3838 91.8301 89.46 91.7031 89.46 91.5V89.5957C89.46 89.054 89.2907 88.6393 88.9522 88.3516C88.6136 88.0469 88.2074 87.8945 87.7334 87.8945C87.2256 87.8945 86.8024 88.0723 86.4639 88.4277C86.1254 88.7663 85.9561 89.2148 85.9561 89.7734C85.9561 90.3659 85.6091 90.6621 84.9151 90.6621C84.4242 90.6621 84.0941 90.5013 83.9248 90.1797C83.9248 89.8242 84.0687 89.4603 84.3565 89.0879C84.6612 88.6986 85.0505 88.3431 85.5245 88.0215C85.9984 87.6999 86.5147 87.4375 87.0733 87.2344C87.6488 87.0312 88.2159 86.9297 88.7745 86.9297C89.7054 86.9297 90.3741 87.1582 90.7803 87.6152C91.1866 88.0553 91.3897 88.7747 91.3897 89.7734V95.6387C91.3897 95.9941 91.4828 96.2904 91.669 96.5273C91.8552 96.7643 92.1091 96.8828 92.4307 96.8828C92.6508 96.8828 92.947 96.7643 93.3194 96.5273C93.3871 96.5273 93.4209 96.5951 93.4209 96.7305C93.4209 96.9505 93.3786 97.1283 93.294 97.2637C92.6 97.8561 92.0075 98.1523 91.5166 98.1523C91.1273 98.1523 90.7549 97.9915 90.3995 97.6699C90.044 97.3483 89.7985 97.0098 89.6631 96.6543C89.5785 96.722 89.4685 96.8151 89.333 96.9336C89.2146 97.0352 89.113 97.1198 89.0284 97.1875C88.6729 97.4583 88.2836 97.6953 87.8604 97.8984C87.4541 98.0846 87.0056 98.1777 86.5147 98.1777ZM87.4795 96.7305C87.9535 96.7305 88.4021 96.5951 88.8252 96.3242C89.2484 96.0534 89.46 95.7656 89.46 95.4609V92.8457C89.0199 93.015 88.5967 93.1673 88.1905 93.3027C87.8011 93.4382 87.488 93.5482 87.251 93.6328C86.9463 93.7513 86.6501 93.9629 86.3623 94.2676C86.0915 94.5723 85.9561 94.9193 85.9561 95.3086C85.9561 95.8164 86.1084 96.1803 86.4131 96.4004C86.7347 96.6204 87.0902 96.7305 87.4795 96.7305ZM95.1404 98.0762C95.0727 98.0085 95.0388 97.8646 95.0388 97.6445C95.0388 97.4414 95.0727 97.3398 95.1404 97.3398C95.2758 97.3398 95.462 97.3145 95.699 97.2637C95.936 97.2129 96.156 97.1452 96.3591 97.0605C96.5623 96.9759 96.6723 96.8997 96.6892 96.832C96.7569 96.5951 96.7992 96.3242 96.8162 96.0195C96.85 95.7148 96.867 95.3932 96.867 95.0547V90.2559C96.867 89.6126 96.7485 89.1556 96.5115 88.8848C96.3422 88.6816 96.1391 88.5462 95.9021 88.4785C95.6821 88.4108 95.4789 88.377 95.2927 88.377C95.1235 88.36 95.0388 88.3346 95.0388 88.3008C95.0388 87.8945 95.0896 87.6829 95.1912 87.666C96.0883 87.5306 96.7908 87.4121 97.2986 87.3105C97.8233 87.209 98.2211 87.1243 98.492 87.0566L98.822 86.9805C98.8897 86.9635 98.9321 87.0312 98.949 87.1836C98.9659 87.319 98.9659 87.429 98.949 87.5137C98.9151 87.7507 98.8897 87.9538 98.8728 88.123C98.8559 88.2923 98.8474 88.4277 98.8474 88.5293C98.8474 88.597 98.8643 88.6309 98.8982 88.6309C98.9151 88.6309 98.9405 88.6139 98.9744 88.5801C99.3637 88.1738 99.8884 87.793 100.549 87.4375C101.226 87.0651 101.869 86.8789 102.478 86.8789C103.155 86.8789 103.714 87.0651 104.154 87.4375C104.611 87.793 104.924 88.2077 105.094 88.6816C106.38 87.4798 107.692 86.8789 109.029 86.8789C111.162 86.8789 112.228 88.5039 112.228 91.7539V94.5723C112.228 95.0632 112.245 95.4948 112.279 95.8672C112.313 96.2396 112.364 96.5612 112.431 96.832C112.465 96.8997 112.584 96.9759 112.787 97.0605C112.99 97.1452 113.21 97.2129 113.447 97.2637C113.684 97.3145 113.853 97.3398 113.955 97.3398C114.006 97.3398 114.039 97.4414 114.056 97.6445C114.073 97.8477 114.065 97.9915 114.031 98.0762L111.314 97.9492L108.547 98.0762C108.479 98.0085 108.445 97.8646 108.445 97.6445C108.445 97.4414 108.479 97.3398 108.547 97.3398C108.682 97.3398 108.868 97.3145 109.105 97.2637C109.342 97.2129 109.562 97.1452 109.765 97.0605C109.969 96.9759 110.079 96.8997 110.095 96.832C110.163 96.5951 110.205 96.3411 110.222 96.0703C110.256 95.7826 110.273 95.4948 110.273 95.207V92.3379C110.273 89.7311 109.418 88.4277 107.709 88.4277C107.302 88.4277 106.922 88.5208 106.566 88.707C106.211 88.8763 105.923 89.071 105.703 89.291C105.5 89.5111 105.398 89.7057 105.398 89.875C105.449 90.1966 105.483 90.5267 105.5 90.8652C105.517 91.1868 105.525 91.5423 105.525 91.9316V94.8008C105.525 95.224 105.542 95.6048 105.576 95.9434C105.61 96.265 105.661 96.5612 105.728 96.832C105.762 96.8997 105.881 96.9759 106.084 97.0605C106.287 97.1452 106.507 97.2129 106.744 97.2637C106.981 97.3145 107.15 97.3398 107.252 97.3398C107.302 97.3398 107.336 97.4414 107.353 97.6445C107.37 97.8477 107.362 97.9915 107.328 98.0762L104.611 97.9492L101.844 98.0762C101.776 98.0085 101.742 97.8646 101.742 97.6445C101.742 97.4414 101.776 97.3398 101.844 97.3398C101.979 97.3398 102.165 97.3145 102.402 97.2637C102.639 97.2129 102.859 97.1452 103.062 97.0605C103.265 96.9759 103.375 96.8997 103.392 96.832C103.46 96.5951 103.502 96.3242 103.519 96.0195C103.553 95.7148 103.57 95.3932 103.57 95.0547V92.4648C103.57 89.7734 102.758 88.4277 101.133 88.4277C100.794 88.4277 100.447 88.5208 100.092 88.707C99.7361 88.8763 99.4314 89.0964 99.1775 89.3672C98.9405 89.6211 98.822 89.8665 98.822 90.1035V94.5723C98.822 95.0632 98.839 95.4948 98.8728 95.8672C98.9067 96.2396 98.9574 96.5612 99.0252 96.832C99.059 96.8997 99.1775 96.9759 99.3806 97.0605C99.5837 97.1452 99.8038 97.2129 100.041 97.2637C100.278 97.3145 100.447 97.3398 100.549 97.3398C100.599 97.3398 100.633 97.4414 100.65 97.6445C100.667 97.8477 100.659 97.9915 100.625 98.0762L97.908 97.9492L95.1404 98.0762Z" fill="#E85C52"/>
<defs>
<radialGradient id="paint0_radial_91_157" cx="0" cy="0" r="1" gradientUnits="userSpaceOnUse" gradientTransform="translate(43.243 62.7031) scale(61.3428 61.306)">
<stop offset="0.09" stop-color="#FA8F21"/>
<stop offset="0.78" stop-color="#D82D7E"/>
</radialGradient>
<radialGradient id="paint1_radial_91_157" cx="0" cy="0" r="1" gradientUnits="userSpaceOnUse" gradientTransform="translate(65.498 64.807) scale(48.3466 48.3176)">
<stop offset="0.64" stop-color="#8C3AAA" stop-opacity="0"/>
<stop offset="1" stop-color="#8C3AAA"/>
</radialGradient>
</defs>
</svg>
