<svg width="120" height="129" viewBox="0 0 120 129" fill="none" xmlns="http://www.w3.org/2000/svg">
<rect y="9" width="120" height="120" fill="#1D1B1B"/>
<path d="M70.0611 45.6857L71.2864 37.9073H63.7384V32.8514C63.7384 30.7245 64.7921 28.6462 68.1618 28.6462H71.6417V22.0224C69.6152 21.6995 67.5675 21.5248 65.5151 21.4998C59.3027 21.4998 55.2468 25.231 55.2468 31.9763V37.9073H48.3605V45.6857H55.2468V64.4998H63.7384V45.6857H70.0611Z" fill="#337FFF"/>
<path d="M9.16797 107.076C9.10026 107.008 9.06641 106.882 9.06641 106.695C9.06641 106.458 9.10026 106.34 9.16797 106.34C9.32031 106.34 9.52344 106.323 9.77734 106.289C10.0312 106.238 10.2682 106.171 10.4883 106.086C10.7083 106.001 10.8353 105.917 10.8691 105.832C10.9876 105.409 11.0469 104.647 11.0469 103.547V93.7715C11.0469 93.2806 11.0299 92.849 10.9961 92.4766C10.9792 92.1042 10.9368 91.8079 10.8691 91.5879C10.8353 91.4863 10.6999 91.3932 10.4629 91.3086C10.2428 91.224 9.9974 91.1562 9.72656 91.1055C9.47266 91.0547 9.26953 91.0293 9.11719 91.0293C9.04948 91.0293 9.01562 90.9277 9.01562 90.7246C9.01562 90.5046 9.04948 90.3607 9.11719 90.293C9.55729 90.3099 10.0228 90.3268 10.5137 90.3438C11.0215 90.3438 11.5632 90.3438 12.1387 90.3438C12.528 90.3438 13.0527 90.3353 13.7129 90.3184C14.373 90.3014 15.1686 90.276 16.0996 90.2422C17.0475 90.2083 17.8685 90.1829 18.5625 90.166C19.2734 90.1491 19.8659 90.1406 20.3398 90.1406C20.3737 90.3776 20.4245 90.6654 20.4922 91.0039C20.5599 91.3255 20.6445 91.681 20.7461 92.0703C20.8307 92.4766 20.8984 92.8066 20.9492 93.0605C21.0169 93.3145 21.0592 93.4922 21.0762 93.5938C20.9915 93.6784 20.8392 93.7207 20.6191 93.7207C20.3991 93.7207 20.2806 93.6615 20.2637 93.543C20.0098 92.612 19.6543 92.0195 19.1973 91.7656C18.7402 91.4948 18.1139 91.3594 17.3184 91.3594H15.6172C14.1445 91.3594 13.3997 91.4694 13.3828 91.6895C13.349 91.8926 13.3151 92.1719 13.2812 92.5273C13.2643 92.8828 13.2559 93.3145 13.2559 93.8223V97.9609C13.2559 98.0625 13.6113 98.1133 14.3223 98.1133H15.668C16.4297 98.1133 16.9798 98.0879 17.3184 98.0371C17.6569 97.9694 17.8939 97.8255 18.0293 97.6055C18.1647 97.3685 18.2917 96.9961 18.4102 96.4883L18.4609 96.2598C18.4779 96.1413 18.6048 96.082 18.8418 96.082C19.0449 96.082 19.1888 96.1243 19.2734 96.209V101.135C19.2057 101.202 19.0703 101.236 18.8672 101.236C18.6471 101.236 18.5117 101.169 18.4609 101.033C18.3932 100.796 18.334 100.593 18.2832 100.424C18.2324 100.255 18.1901 100.111 18.1562 99.9922C18.0716 99.7552 18.0039 99.6198 17.9531 99.5859C17.9193 99.5521 17.8516 99.5013 17.75 99.4336C17.513 99.2982 16.6159 99.2305 15.0586 99.2305C13.8568 99.2305 13.2559 99.3066 13.2559 99.459V103.471C13.2559 104.452 13.332 105.24 13.4844 105.832C13.5182 105.9 13.6452 105.976 13.8652 106.061C14.0853 106.145 14.3223 106.213 14.5762 106.264C14.8301 106.314 15.0078 106.34 15.1094 106.34C15.1771 106.34 15.2109 106.467 15.2109 106.721C15.2109 106.822 15.194 106.941 15.1602 107.076C14.3138 107.042 13.6452 107.017 13.1543 107C12.6634 106.966 12.3503 106.949 12.2148 106.949L9.16797 107.076ZM26.4519 107.178C25.6732 107.178 25.03 106.975 24.5222 106.568C24.0144 106.145 23.7605 105.519 23.7605 104.689C23.7605 103.674 24.4206 102.827 25.7409 102.15C26.3165 101.863 26.8835 101.634 27.4421 101.465C28.0176 101.296 28.5932 101.101 29.1687 100.881C29.321 100.83 29.3972 100.703 29.3972 100.5V98.5957C29.3972 98.054 29.2279 97.6393 28.8894 97.3516C28.5508 97.0469 28.1446 96.8945 27.6706 96.8945C27.1628 96.8945 26.7396 97.0723 26.4011 97.4277C26.0626 97.7663 25.8933 98.2148 25.8933 98.7734C25.8933 99.3659 25.5463 99.6621 24.8523 99.6621C24.3614 99.6621 24.0313 99.5013 23.862 99.1797C23.862 98.8242 24.0059 98.4603 24.2937 98.0879C24.5984 97.6986 24.9877 97.3431 25.4616 97.0215C25.9356 96.6999 26.4519 96.4375 27.0105 96.2344C27.586 96.0312 28.153 95.9297 28.7116 95.9297C29.6426 95.9297 30.3112 96.1582 30.7175 96.6152C31.1237 97.0553 31.3269 97.7747 31.3269 98.7734V104.639C31.3269 104.994 31.42 105.29 31.6062 105.527C31.7924 105.764 32.0463 105.883 32.3679 105.883C32.5879 105.883 32.8842 105.764 33.2566 105.527C33.3243 105.527 33.3581 105.595 33.3581 105.73C33.3581 105.951 33.3158 106.128 33.2312 106.264C32.5372 106.856 31.9447 107.152 31.4538 107.152C31.0645 107.152 30.6921 106.992 30.3366 106.67C29.9812 106.348 29.7357 106.01 29.6003 105.654C29.5157 105.722 29.4057 105.815 29.2702 105.934C29.1517 106.035 29.0502 106.12 28.9655 106.188C28.6101 106.458 28.2208 106.695 27.7976 106.898C27.3913 107.085 26.9428 107.178 26.4519 107.178ZM27.4167 105.73C27.8907 105.73 28.3392 105.595 28.7624 105.324C29.1856 105.053 29.3972 104.766 29.3972 104.461V101.846C28.9571 102.015 28.5339 102.167 28.1277 102.303C27.7383 102.438 27.4252 102.548 27.1882 102.633C26.8835 102.751 26.5873 102.963 26.2995 103.268C26.0287 103.572 25.8933 103.919 25.8933 104.309C25.8933 104.816 26.0456 105.18 26.3503 105.4C26.6719 105.62 27.0274 105.73 27.4167 105.73ZM40.3588 107.152C39.4278 107.152 38.573 106.907 37.7944 106.416C37.0157 105.925 36.3894 105.273 35.9155 104.461C35.4584 103.632 35.2299 102.709 35.2299 101.693C35.2299 100.644 35.4161 99.6875 35.7885 98.8242C36.1778 97.944 36.7364 97.2415 37.4643 96.7168C38.2091 96.1921 39.1062 95.9297 40.1557 95.9297C42.0177 95.9297 43.3041 96.3613 44.0151 97.2246C44.0151 98.3587 43.7019 98.9258 43.0756 98.9258C42.7879 98.9258 42.5678 98.8665 42.4155 98.748C42.2631 98.6126 42.0685 98.3757 41.8315 98.0371C41.3067 97.2585 40.6804 96.8691 39.9526 96.8691C39.2586 96.8691 38.6238 97.1992 38.0483 97.8594C37.4897 98.5195 37.2104 99.5013 37.2104 100.805C37.2104 102.159 37.5405 103.285 38.2006 104.182C38.8777 105.079 39.8087 105.527 40.9936 105.527C41.7045 105.527 42.297 105.426 42.7709 105.223C43.2618 105.003 43.6173 104.808 43.8373 104.639L44.0151 104.512C44.1166 104.512 44.1674 104.622 44.1674 104.842C44.1674 104.96 44.1166 105.113 44.0151 105.299C43.6765 105.773 43.1772 106.204 42.517 106.594C41.8569 106.966 41.1375 107.152 40.3588 107.152ZM51.422 107.152C50.491 107.152 49.6362 106.907 48.8576 106.416C48.0789 105.925 47.4526 105.273 46.9787 104.461C46.5216 103.632 46.2931 102.709 46.2931 101.693C46.2931 100.508 46.5132 99.4844 46.9533 98.6211C47.3934 97.7578 47.9943 97.0977 48.756 96.6406C49.5177 96.1667 50.3726 95.9297 51.3205 95.9297C52.0991 95.9297 52.7847 96.082 53.3771 96.3867C53.9696 96.6745 54.4266 97.0469 54.7482 97.5039C55.0529 97.9779 55.2729 98.4603 55.4084 98.9512C55.5607 99.4251 55.6369 99.8991 55.6369 100.373C55.6369 100.712 55.5861 100.923 55.4845 101.008C55.383 101.076 55.1883 101.109 54.9005 101.109H48.5021C48.3667 101.109 48.299 101.152 48.299 101.236C48.299 101.947 48.4429 102.633 48.7306 103.293C49.0184 103.936 49.4416 104.469 50.0002 104.893C50.5588 105.316 51.2443 105.527 52.0568 105.527C52.7677 105.527 53.3602 105.426 53.8341 105.223C54.325 105.003 54.6805 104.808 54.9005 104.639L55.0783 104.512C55.1798 104.512 55.2306 104.622 55.2306 104.842C55.2306 104.96 55.1798 105.113 55.0783 105.299C54.7397 105.773 54.2404 106.204 53.5802 106.594C52.9201 106.966 52.2007 107.152 51.422 107.152ZM48.5021 100.043H53.4533C53.5379 100.043 53.5802 99.9583 53.5802 99.7891C53.5802 99.4167 53.4787 99.0104 53.2755 98.5703C53.0893 98.1133 52.8016 97.7155 52.4123 97.377C52.0229 97.0384 51.5321 96.8691 50.9396 96.8691C50.3979 96.8691 49.9324 97.0553 49.5431 97.4277C49.1538 97.7832 48.8576 98.1979 48.6545 98.6719C48.4513 99.1289 48.3498 99.5267 48.3498 99.8652C48.3498 99.9837 48.4005 100.043 48.5021 100.043ZM63.0184 107.152C62.4429 107.152 61.8759 107.102 61.3173 107C60.7756 106.882 60.4201 106.822 60.2509 106.822C60.0985 106.822 59.9123 106.873 59.6923 106.975C59.4722 107.059 59.3368 107.102 59.286 107.102C59.2183 107.102 59.1083 107.076 58.9559 107.025C58.8205 106.975 58.7528 106.915 58.7528 106.848C58.7528 106.746 58.8036 106.424 58.9052 105.883C59.0067 105.324 59.0575 104.554 59.0575 103.572V93.0605C59.0575 92.485 59.0067 91.9434 58.9052 91.4355C58.8374 91.1647 58.4058 91.0293 57.6102 91.0293H57.3817C57.2802 91.0293 57.2294 90.9362 57.2294 90.75C57.2294 90.4792 57.2802 90.3438 57.3817 90.3438C58.3296 90.2591 59.0744 90.1322 59.6161 89.9629C60.1747 89.7936 60.5725 89.6243 60.8095 89.4551L60.911 89.3789H60.9618C61.0295 89.3789 61.0972 89.4297 61.1649 89.5312C61.2326 89.6159 61.2749 89.7005 61.2919 89.7852C61.1057 90.3438 61.0126 91.0801 61.0126 91.9941V96.4375C61.0126 96.6237 61.038 96.7168 61.0887 96.7168C61.1057 96.7168 61.1141 96.7168 61.1141 96.7168C61.1311 96.6999 61.148 96.6914 61.1649 96.6914C61.4019 96.5221 61.7658 96.3444 62.2567 96.1582C62.7476 95.972 63.1792 95.8789 63.5516 95.8789C64.635 95.8789 65.566 96.1413 66.3446 96.666C67.1233 97.1738 67.7157 97.8255 68.122 98.6211C68.5451 99.4167 68.7567 100.238 68.7567 101.084C68.7567 101.896 68.5959 102.667 68.2743 103.395C67.9527 104.122 67.5126 104.774 66.954 105.35C66.4123 105.908 65.7945 106.348 65.1005 106.67C64.4234 106.992 63.7294 107.152 63.0184 107.152ZM63.5009 106.086C64.1441 106.086 64.6942 105.874 65.1512 105.451C65.6083 105.028 65.9553 104.478 66.1923 103.801C66.4462 103.107 66.5731 102.379 66.5731 101.617C66.5731 100.28 66.2177 99.1966 65.5067 98.3672C64.8127 97.5378 63.8902 97.123 62.7391 97.123C62.2652 97.123 61.8589 97.2585 61.5204 97.5293C61.1818 97.7832 61.0126 98.1556 61.0126 98.6465V104.562C61.0126 105.087 61.258 105.477 61.7489 105.73C62.2567 105.967 62.8407 106.086 63.5009 106.086ZM77.0016 107.178C75.9859 107.178 75.0549 106.924 74.2086 106.416C73.3622 105.908 72.6852 105.223 72.1773 104.359C71.6865 103.496 71.441 102.548 71.441 101.516C71.441 100.466 71.678 99.5182 72.152 98.6719C72.6428 97.8255 73.303 97.1569 74.1324 96.666C74.9619 96.1582 75.9013 95.9043 76.9508 95.9043C77.9664 95.9043 78.8889 96.1582 79.7184 96.666C80.5647 97.1738 81.2333 97.8509 81.7242 98.6973C82.232 99.5436 82.4859 100.483 82.4859 101.516C82.4859 102.548 82.2405 103.496 81.7496 104.359C81.2587 105.223 80.5986 105.908 79.7691 106.416C78.9566 106.924 78.0341 107.178 77.0016 107.178ZM77.2301 106.188C77.8395 106.188 78.3727 105.993 78.8297 105.604C79.2867 105.214 79.6422 104.689 79.8961 104.029C80.1669 103.369 80.3023 102.65 80.3023 101.871C80.3023 100.957 80.1331 100.128 79.7945 99.3828C79.456 98.6211 79.0074 98.0202 78.4488 97.5801C77.9072 97.123 77.3147 96.8945 76.6715 96.8945C76.079 96.8945 75.5458 97.0892 75.0719 97.4785C74.6148 97.8509 74.2594 98.3587 74.0055 99.002C73.7516 99.6283 73.6246 100.339 73.6246 101.135C73.6246 102.049 73.7854 102.895 74.107 103.674C74.4456 104.436 74.8857 105.045 75.4273 105.502C75.9859 105.959 76.5869 106.188 77.2301 106.188ZM90.7308 107.178C89.7152 107.178 88.7842 106.924 87.9378 106.416C87.0915 105.908 86.4144 105.223 85.9066 104.359C85.4157 103.496 85.1702 102.548 85.1702 101.516C85.1702 100.466 85.4072 99.5182 85.8812 98.6719C86.3721 97.8255 87.0322 97.1569 87.8616 96.666C88.6911 96.1582 89.6305 95.9043 90.68 95.9043C91.6956 95.9043 92.6182 96.1582 93.4476 96.666C94.2939 97.1738 94.9626 97.8509 95.4534 98.6973C95.9613 99.5436 96.2152 100.483 96.2152 101.516C96.2152 102.548 95.9697 103.496 95.4788 104.359C94.9879 105.223 94.3278 105.908 93.4984 106.416C92.6859 106.924 91.7633 107.178 90.7308 107.178ZM90.9593 106.188C91.5687 106.188 92.1019 105.993 92.5589 105.604C93.0159 105.214 93.3714 104.689 93.6253 104.029C93.8961 103.369 94.0316 102.65 94.0316 101.871C94.0316 100.957 93.8623 100.128 93.5238 99.3828C93.1852 98.6211 92.7366 98.0202 92.178 97.5801C91.6364 97.123 91.0439 96.8945 90.4007 96.8945C89.8083 96.8945 89.2751 97.0892 88.8011 97.4785C88.3441 97.8509 87.9886 98.3587 87.7347 99.002C87.4808 99.6283 87.3538 100.339 87.3538 101.135C87.3538 102.049 87.5146 102.895 87.8363 103.674C88.1748 104.436 88.6149 105.045 89.1566 105.502C89.7152 105.959 90.3161 106.188 90.9593 106.188ZM98.417 107.076C98.3493 107.008 98.3155 106.865 98.3155 106.645C98.3155 106.441 98.3493 106.34 98.417 106.34C98.5524 106.34 98.7386 106.314 98.9756 106.264C99.2126 106.213 99.4327 106.145 99.6358 106.061C99.8389 105.976 99.9489 105.9 99.9659 105.832C100.034 105.595 100.076 105.324 100.093 105.02C100.127 104.715 100.144 104.393 100.144 104.055V93.0605C100.144 92.485 100.093 91.9434 99.9912 91.4355C99.9235 91.1647 99.4919 91.0293 98.6963 91.0293H98.4678C98.3662 91.0293 98.3155 90.9362 98.3155 90.75C98.3155 90.4792 98.3662 90.3438 98.4678 90.3438C99.3311 90.2591 100.059 90.1237 100.651 89.9375C101.244 89.7344 101.65 89.5736 101.87 89.4551L101.997 89.3789H102.048C102.116 89.3789 102.183 89.4297 102.251 89.5312C102.319 89.6159 102.361 89.7005 102.378 89.7852C102.192 90.3438 102.099 91.0801 102.099 91.9941V100.881C102.437 100.813 102.649 100.737 102.733 100.652L103.901 99.6621L104.815 98.9004C105.103 98.6634 105.349 98.4434 105.552 98.2402C105.772 98.0371 105.882 97.8509 105.882 97.6816C105.882 97.4616 105.696 97.3431 105.323 97.3262C104.985 97.3092 104.79 97.2754 104.739 97.2246C104.604 96.8861 104.612 96.6914 104.765 96.6406H106.771C107.363 96.6406 107.845 96.6237 108.218 96.5898C108.59 96.556 109.039 96.5306 109.564 96.5137C109.665 96.5306 109.707 96.6576 109.69 96.8945C109.674 97.1146 109.623 97.2246 109.538 97.2246C109.403 97.2246 109.208 97.25 108.954 97.3008C108.717 97.3516 108.489 97.4108 108.269 97.4785C108.049 97.5293 107.888 97.5885 107.786 97.6562C107.6 97.7578 107.278 97.9779 106.821 98.3164C106.381 98.6549 105.907 99.0443 105.399 99.4844C104.892 99.9076 104.435 100.322 104.028 100.729C105.332 102.117 106.347 103.234 107.075 104.08C107.82 104.926 108.302 105.451 108.522 105.654C108.81 105.891 109.174 106.077 109.614 106.213C110.054 106.331 110.368 106.391 110.554 106.391C110.621 106.391 110.655 106.526 110.655 106.797C110.655 106.966 110.647 107.059 110.63 107.076L107.862 106.949L105.222 107.076C105.154 107.008 105.12 106.873 105.12 106.67C105.12 106.484 105.154 106.391 105.222 106.391C105.391 106.391 105.586 106.357 105.806 106.289C106.026 106.221 106.136 106.145 106.136 106.061C106.136 106.027 106.127 106.001 106.11 105.984L102.403 101.973L102.099 102.049V103.572C102.099 104.131 102.116 104.605 102.149 104.994C102.2 105.367 102.251 105.646 102.302 105.832C102.336 105.9 102.454 105.976 102.657 106.061C102.86 106.145 103.08 106.213 103.317 106.264C103.554 106.314 103.724 106.34 103.825 106.34C103.876 106.34 103.91 106.441 103.927 106.645C103.944 106.848 103.935 106.992 103.901 107.076L101.185 106.949L98.417 107.076Z" fill="#337FFF"/>
</svg>
