<svg width="120" height="126" viewBox="0 0 120 126" fill="none" xmlns="http://www.w3.org/2000/svg">
<rect y="6" width="120" height="120" fill="#1D1B1B"/>
<path d="M20.2559 101.076C20.1882 101.008 20.1543 100.89 20.1543 100.721C20.1543 100.501 20.1882 100.391 20.2559 100.391C20.3913 100.391 20.5775 100.365 20.8145 100.314C21.0684 100.264 21.2969 100.196 21.5 100.111C21.7201 100.01 21.847 99.9167 21.8809 99.832C21.9486 99.5612 21.9993 99.2227 22.0332 98.8164C22.0671 98.4102 22.084 97.9362 22.084 97.3945V94.2207C22.084 93.9837 21.9062 93.5098 21.5508 92.7988C21.3646 92.4603 21.0091 91.8086 20.4844 90.8438C19.9596 89.8789 19.2572 88.6178 18.377 87.0605C18.1061 86.5527 17.8945 86.2057 17.7422 86.0195C17.6068 85.8164 17.4036 85.6217 17.1328 85.4355C16.9466 85.3001 16.6673 85.1732 16.2949 85.0547C15.9225 84.9362 15.6517 84.877 15.4824 84.877C15.4147 84.877 15.3809 84.7839 15.3809 84.5977C15.3809 84.3945 15.4147 84.2591 15.4824 84.1914L16.8535 84.2676C17.1751 84.2845 17.4714 84.3014 17.7422 84.3184C18.0299 84.3353 18.2923 84.3438 18.5293 84.3438C18.7324 84.3438 19.8496 84.293 21.8809 84.1914C21.9147 84.2591 21.9232 84.3945 21.9062 84.5977C21.9062 84.7839 21.8809 84.877 21.8301 84.877C21.5423 84.877 21.2122 84.9531 20.8398 85.1055C20.4844 85.2409 20.3066 85.4525 20.3066 85.7402C20.3066 85.9095 20.3997 86.1634 20.5859 86.502L23.4297 91.8848C23.5312 91.9694 23.6159 91.9525 23.6836 91.834C25.9857 88.3639 27.1367 86.3242 27.1367 85.7148C27.1367 85.5286 26.9674 85.3424 26.6289 85.1562C26.2904 84.9701 25.8757 84.877 25.3848 84.877C25.3171 84.877 25.2832 84.7754 25.2832 84.5723C25.2832 84.3861 25.3171 84.2591 25.3848 84.1914L28.3809 84.3438C28.6517 84.3607 28.9225 84.3607 29.1934 84.3438C29.4642 84.3099 29.735 84.2845 30.0059 84.2676C30.5645 84.2168 30.9199 84.1914 31.0723 84.1914C31.1061 84.3268 31.123 84.4538 31.123 84.5723C31.123 84.7754 31.0892 84.877 31.0215 84.877C30.8861 84.877 30.6745 84.9108 30.3867 84.9785C30.099 85.0462 29.8112 85.1393 29.5234 85.2578C29.2526 85.3763 29.0579 85.5117 28.9395 85.6641C28.6855 86.0703 28.3639 86.5866 27.9746 87.2129C27.5853 87.8223 27.179 88.4824 26.7559 89.1934C26.3327 89.8874 25.9349 90.556 25.5625 91.1992C25.1901 91.8255 24.8854 92.3587 24.6484 92.7988C24.4115 93.2389 24.293 93.5098 24.293 93.6113V97.4707C24.293 97.9954 24.3099 98.4525 24.3438 98.8418C24.3776 99.2311 24.4284 99.5612 24.4961 99.832C24.5299 99.8997 24.6484 99.9844 24.8516 100.086C25.0716 100.171 25.3001 100.247 25.5371 100.314C25.7741 100.365 25.9434 100.391 26.0449 100.391C26.1126 100.391 26.1465 100.501 26.1465 100.721C26.1465 100.822 26.1296 100.941 26.0957 101.076C25.2493 101.042 24.5892 101.017 24.1152 101C23.6413 100.966 23.3535 100.949 23.252 100.949L20.2559 101.076ZM36.2195 101.178C35.2038 101.178 34.2728 100.924 33.4265 100.416C32.5801 99.9082 31.903 99.2227 31.3952 98.3594C30.9043 97.4961 30.6589 96.5482 30.6589 95.5156C30.6589 94.4661 30.8959 93.5182 31.3698 92.6719C31.8607 91.8255 32.5209 91.1569 33.3503 90.666C34.1797 90.1582 35.1192 89.9043 36.1687 89.9043C37.1843 89.9043 38.1068 90.1582 38.9362 90.666C39.7826 91.1738 40.4512 91.8509 40.9421 92.6973C41.4499 93.5436 41.7038 94.4831 41.7038 95.5156C41.7038 96.5482 41.4584 97.4961 40.9675 98.3594C40.4766 99.2227 39.8165 99.9082 38.987 100.416C38.1745 100.924 37.252 101.178 36.2195 101.178ZM36.448 100.188C37.0573 100.188 37.5905 99.9928 38.0476 99.6035C38.5046 99.2142 38.8601 98.6895 39.114 98.0293C39.3848 97.3691 39.5202 96.6497 39.5202 95.8711C39.5202 94.957 39.351 94.1276 39.0124 93.3828C38.6739 92.6211 38.2253 92.0202 37.6667 91.5801C37.1251 91.123 36.5326 90.8945 35.8894 90.8945C35.2969 90.8945 34.7637 91.0892 34.2898 91.4785C33.8327 91.8509 33.4773 92.3587 33.2234 93.002C32.9695 93.6283 32.8425 94.3392 32.8425 95.1348C32.8425 96.0488 33.0033 96.8952 33.3249 97.6738C33.6635 98.4355 34.1036 99.0449 34.6452 99.502C35.2038 99.959 35.8047 100.188 36.448 100.188ZM52.767 101.203C52.6316 101.203 52.5639 101.068 52.5639 100.797V99.502C52.5639 99.4173 52.547 99.375 52.5131 99.375C51.3959 100.577 50.2872 101.178 49.187 101.178C48.3914 101.178 47.7566 100.949 47.2827 100.492C46.8256 100.018 46.4955 99.4258 46.2924 98.7148C46.1062 97.987 46.0131 97.2337 46.0131 96.4551V93.2559C46.0131 92.6126 45.8946 92.1556 45.6577 91.8848C45.4884 91.6816 45.2853 91.5462 45.0483 91.4785C44.8282 91.4108 44.6251 91.377 44.4389 91.377C44.2696 91.36 44.185 91.3346 44.185 91.3008C44.185 90.8945 44.2358 90.6829 44.3373 90.666C45.2345 90.5306 45.9539 90.4121 46.4955 90.3105C47.0541 90.1921 47.3758 90.1243 47.4604 90.1074L47.9682 89.9805C48.0359 89.9635 48.0782 90.0312 48.0952 90.1836C48.1121 90.3359 48.1121 90.446 48.0952 90.5137C47.9936 91.3262 47.9428 91.9525 47.9428 92.3926V95.8203C47.9428 97.1237 48.1375 98.0885 48.5268 98.7148C48.9161 99.3242 49.5509 99.6289 50.4311 99.6289C50.7696 99.6289 51.0997 99.5358 51.4213 99.3496C51.7599 99.1634 52.0307 98.9434 52.2338 98.6895C52.4539 98.4186 52.5639 98.1901 52.5639 98.0039V93.2559C52.5639 92.6126 52.4454 92.1556 52.2084 91.8848C52.0392 91.6816 51.836 91.5462 51.5991 91.4785C51.379 91.4108 51.1759 91.3685 50.9897 91.3516C50.8204 91.3346 50.7358 91.3177 50.7358 91.3008C50.7358 90.8945 50.7866 90.6829 50.8881 90.666C51.7853 90.5306 52.4539 90.4206 52.894 90.3359C53.351 90.2513 53.7149 90.1751 53.9858 90.1074L54.519 89.9805C54.5867 89.9635 54.629 90.0312 54.6459 90.1836C54.6629 90.3359 54.6629 90.446 54.6459 90.5137C54.5444 91.3262 54.4936 91.9355 54.4936 92.3418V97.4199C54.4936 98.1816 54.5528 98.8249 54.6713 99.3496C54.7221 99.5189 54.8575 99.6289 55.0776 99.6797C55.2976 99.7135 55.5515 99.7474 55.8393 99.7812L56.1694 99.8066C56.2202 99.8236 56.2455 99.9167 56.2455 100.086C56.2455 100.137 56.2202 100.221 56.1694 100.34C56.1355 100.441 56.0932 100.492 56.0424 100.492C55.5346 100.526 54.976 100.619 54.3666 100.771C53.7573 100.907 53.3002 101.034 52.9955 101.152L52.767 101.203ZM62.3576 101.178C61.5112 101.178 60.8003 100.898 60.2248 100.34C59.6662 99.7812 59.3869 98.9857 59.3869 97.9531V91.5039H57.9142C57.8296 91.5039 57.7873 91.3262 57.7873 90.9707C57.7873 90.8691 57.7957 90.8099 57.8127 90.793C58.3205 90.556 58.8537 90.1074 59.4123 89.4473C59.8016 88.9902 60.0893 88.5924 60.2755 88.2539C60.4787 87.9154 60.5802 87.7122 60.5802 87.6445C61.088 87.6445 61.342 87.6868 61.342 87.7715V90.2852L63.3478 90.3105H64.7697C64.9051 90.3105 64.9728 90.3867 64.9728 90.5391C64.9728 90.8607 64.8882 91.1823 64.7189 91.5039H61.342V97.7246C61.342 98.4017 61.5112 98.9434 61.8498 99.3496C62.2052 99.7559 62.6623 99.959 63.2209 99.959C63.7456 99.959 64.2703 99.7982 64.7951 99.4766C64.8459 99.4427 64.922 99.5189 65.0236 99.7051C65.1252 99.8743 65.1675 99.9674 65.1505 99.9844C64.8966 100.255 64.5073 100.526 63.9826 100.797C63.4578 101.051 62.9162 101.178 62.3576 101.178ZM75.4266 101.203C75.2912 101.203 75.2235 101.068 75.2235 100.797V99.502C75.2235 99.4173 75.2066 99.375 75.1727 99.375C74.0555 100.577 72.9468 101.178 71.8466 101.178C71.051 101.178 70.4162 100.949 69.9423 100.492C69.4852 100.018 69.1552 99.4258 68.952 98.7148C68.7658 97.987 68.6727 97.2337 68.6727 96.4551V93.2559C68.6727 92.6126 68.5542 92.1556 68.3173 91.8848C68.148 91.6816 67.9449 91.5462 67.7079 91.4785C67.4878 91.4108 67.2847 91.377 67.0985 91.377C66.9292 91.36 66.8446 91.3346 66.8446 91.3008C66.8446 90.8945 66.8954 90.6829 66.997 90.666C67.8941 90.5306 68.6135 90.4121 69.1552 90.3105C69.7137 90.1921 70.0354 90.1243 70.12 90.1074L70.6278 89.9805C70.6955 89.9635 70.7378 90.0312 70.7548 90.1836C70.7717 90.3359 70.7717 90.446 70.7548 90.5137C70.6532 91.3262 70.6024 91.9525 70.6024 92.3926V95.8203C70.6024 97.1237 70.7971 98.0885 71.1864 98.7148C71.5757 99.3242 72.2105 99.6289 73.0907 99.6289C73.4292 99.6289 73.7593 99.5358 74.0809 99.3496C74.4195 99.1634 74.6903 98.9434 74.8934 98.6895C75.1135 98.4186 75.2235 98.1901 75.2235 98.0039V93.2559C75.2235 92.6126 75.105 92.1556 74.868 91.8848C74.6988 91.6816 74.4956 91.5462 74.2587 91.4785C74.0386 91.4108 73.8355 91.3685 73.6493 91.3516C73.48 91.3346 73.3954 91.3177 73.3954 91.3008C73.3954 90.8945 73.4462 90.6829 73.5477 90.666C74.4449 90.5306 75.1135 90.4206 75.5536 90.3359C76.0106 90.2513 76.3746 90.1751 76.6454 90.1074L77.1786 89.9805C77.2463 89.9635 77.2886 90.0312 77.3055 90.1836C77.3225 90.3359 77.3225 90.446 77.3055 90.5137C77.204 91.3262 77.1532 91.9355 77.1532 92.3418V97.4199C77.1532 98.1816 77.2124 98.8249 77.3309 99.3496C77.3817 99.5189 77.5171 99.6289 77.7372 99.6797C77.9572 99.7135 78.2111 99.7474 78.4989 99.7812L78.829 99.8066C78.8798 99.8236 78.9052 99.9167 78.9052 100.086C78.9052 100.137 78.8798 100.221 78.829 100.34C78.7951 100.441 78.7528 100.492 78.702 100.492C78.1942 100.526 77.6356 100.619 77.0262 100.771C76.4169 100.907 75.9598 101.034 75.6552 101.152L75.4266 101.203ZM85.982 101.152C85.4065 101.152 84.8395 101.102 84.2809 101C83.7392 100.882 83.3837 100.822 83.2145 100.822C83.0621 100.822 82.8759 100.873 82.6559 100.975C82.4358 101.059 82.3004 101.102 82.2496 101.102C82.1819 101.102 82.0719 101.076 81.9195 101.025C81.7841 100.975 81.7164 100.915 81.7164 100.848C81.7164 100.746 81.7672 100.424 81.8688 99.8828C81.9703 99.3242 82.0211 98.554 82.0211 97.5723V87.0605C82.0211 86.485 81.9703 85.9434 81.8688 85.4355C81.801 85.1647 81.3694 85.0293 80.5738 85.0293H80.3453C80.2438 85.0293 80.193 84.9362 80.193 84.75C80.193 84.4792 80.2438 84.3438 80.3453 84.3438C81.2932 84.2591 82.038 84.1322 82.5797 83.9629C83.1383 83.7936 83.5361 83.6243 83.773 83.4551L83.8746 83.3789H83.9254C83.9931 83.3789 84.0608 83.4297 84.1285 83.5312C84.1962 83.6159 84.2385 83.7005 84.2555 83.7852C84.0693 84.3438 83.9762 85.0801 83.9762 85.9941V90.4375C83.9762 90.6237 84.0016 90.7168 84.0523 90.7168C84.0693 90.7168 84.0777 90.7168 84.0777 90.7168C84.0947 90.6999 84.1116 90.6914 84.1285 90.6914C84.3655 90.5221 84.7294 90.3444 85.2203 90.1582C85.7112 89.972 86.1428 89.8789 86.5152 89.8789C87.5986 89.8789 88.5296 90.1413 89.3082 90.666C90.0869 91.1738 90.6793 91.8255 91.0855 92.6211C91.5087 93.4167 91.7203 94.2376 91.7203 95.084C91.7203 95.8965 91.5595 96.6667 91.2379 97.3945C90.9163 98.1224 90.4762 98.7741 89.9176 99.3496C89.3759 99.9082 88.7581 100.348 88.0641 100.67C87.387 100.992 86.693 101.152 85.982 101.152ZM86.4645 100.086C87.1077 100.086 87.6578 99.8743 88.1148 99.4512C88.5719 99.028 88.9189 98.4779 89.1559 97.8008C89.4098 97.1068 89.5367 96.3789 89.5367 95.6172C89.5367 94.2799 89.1813 93.1966 88.4703 92.3672C87.7763 91.5378 86.8538 91.123 85.7027 91.123C85.2288 91.123 84.8225 91.2585 84.484 91.5293C84.1454 91.7832 83.9762 92.1556 83.9762 92.6465V98.5625C83.9762 99.0872 84.2216 99.4766 84.7125 99.7305C85.2203 99.9674 85.8043 100.086 86.4645 100.086ZM99.5335 101.152C98.6025 101.152 97.7477 100.907 96.9691 100.416C96.1904 99.9251 95.5641 99.2734 95.0902 98.4609C94.6331 97.6315 94.4046 96.709 94.4046 95.6934C94.4046 94.5085 94.6247 93.4844 95.0648 92.6211C95.5049 91.7578 96.1058 91.0977 96.8675 90.6406C97.6292 90.1667 98.484 89.9297 99.432 89.9297C100.211 89.9297 100.896 90.082 101.489 90.3867C102.081 90.6745 102.538 91.0469 102.86 91.5039C103.164 91.9779 103.384 92.4603 103.52 92.9512C103.672 93.4251 103.748 93.8991 103.748 94.373C103.748 94.7116 103.698 94.9232 103.596 95.0078C103.494 95.0755 103.3 95.1094 103.012 95.1094H96.6136C96.4782 95.1094 96.4105 95.1517 96.4105 95.2363C96.4105 95.9473 96.5543 96.6328 96.8421 97.293C97.1299 97.9362 97.553 98.4694 98.1116 98.8926C98.6702 99.3158 99.3558 99.5273 100.168 99.5273C100.879 99.5273 101.472 99.4258 101.946 99.2227C102.437 99.0026 102.792 98.8079 103.012 98.6387L103.19 98.5117C103.291 98.5117 103.342 98.6217 103.342 98.8418C103.342 98.9603 103.291 99.1126 103.19 99.2988C102.851 99.7728 102.352 100.204 101.692 100.594C101.032 100.966 100.312 101.152 99.5335 101.152ZM96.6136 94.043H101.565C101.649 94.043 101.692 93.9583 101.692 93.7891C101.692 93.4167 101.59 93.0104 101.387 92.5703C101.201 92.1133 100.913 91.7155 100.524 91.377C100.134 91.0384 99.6435 90.8691 99.0511 90.8691C98.5094 90.8691 98.0439 91.0553 97.6546 91.4277C97.2653 91.7832 96.9691 92.1979 96.7659 92.6719C96.5628 93.1289 96.4613 93.5267 96.4613 93.8652C96.4613 93.9837 96.512 94.043 96.6136 94.043Z" fill="#FF0302"/>
<path d="M83.9193 31.1713C83.3578 29.0604 81.6968 27.3951 79.5835 26.8244C75.7623 25.8002 60.4309 25.8002 60.4309 25.8002C60.4309 25.8002 45.1073 25.8002 41.2783 26.8244C39.1728 27.3873 37.5117 29.0525 36.9425 31.1713C35.9209 35.0022 35.9209 43.0002 35.9209 43.0002C35.9209 43.0002 35.9209 50.9982 36.9425 54.8291C37.5039 56.94 39.165 58.6053 41.2783 59.176C45.1073 60.2002 60.4309 60.2002 60.4309 60.2002C60.4309 60.2002 75.7623 60.2002 79.5835 59.176C81.689 58.6131 83.3501 56.9478 83.9193 54.8291C84.9409 50.9982 84.9409 43.0002 84.9409 43.0002C84.9409 43.0002 84.9409 35.0022 83.9193 31.1713Z" fill="#FF3000"/>
<path d="M55.5336 50.3727L68.2682 43.0002L55.5336 35.6276V50.3727Z" fill="white"/>
</svg>
