<svg width="120" height="124" viewBox="0 0 120 124" fill="none" xmlns="http://www.w3.org/2000/svg">
<rect y="4" width="120" height="120" fill="#1D1B1B"/>
<path d="M15.2832 102.203C15.1816 102.203 15.1055 102.161 15.0547 102.076L8.45312 88.9492C8.21615 88.4583 7.9707 88.0098 7.7168 87.6035C7.46289 87.1973 7.21745 86.8333 6.98047 86.5117C6.84505 86.3424 6.61654 86.207 6.29492 86.1055C5.97331 85.987 5.71094 85.9277 5.50781 85.9277C5.4401 85.9277 5.40625 85.8177 5.40625 85.5977C5.40625 85.3945 5.4401 85.2591 5.50781 85.1914L8.70703 85.3184L11.373 85.1914C11.4069 85.2591 11.4154 85.403 11.3984 85.623C11.3984 85.8262 11.373 85.9277 11.3223 85.9277C11.0514 85.9277 10.7721 85.9954 10.4844 86.1309C10.1966 86.2493 10.0527 86.4271 10.0527 86.6641C10.0527 87.1719 10.2474 87.7982 10.6367 88.543L15.8926 98.9531C15.9434 99.0378 16.0111 99.0632 16.0957 99.0293C16.1803 98.9785 16.2396 98.9108 16.2734 98.8262L18.3809 94.4336L15.7148 88.9492C15.4779 88.4583 15.2324 88.0098 14.9785 87.6035C14.7246 87.1973 14.4792 86.8333 14.2422 86.5117C14.1068 86.3424 13.8783 86.207 13.5566 86.1055C13.235 85.987 12.9727 85.9277 12.7695 85.9277C12.7018 85.9277 12.668 85.8008 12.668 85.5469C12.668 85.3776 12.7018 85.2591 12.7695 85.1914L15.9688 85.3184L18.6094 85.1914C18.6432 85.2591 18.6517 85.403 18.6348 85.623C18.6348 85.8262 18.6094 85.9277 18.5586 85.9277C18.2878 85.9277 18.0085 85.987 17.7207 86.1055C17.4499 86.224 17.3145 86.4102 17.3145 86.6641C17.3145 86.8841 17.3568 87.1549 17.4414 87.4766C17.543 87.7812 17.6953 88.1367 17.8984 88.543L19.5742 91.9707L21.3516 88.2383C21.5885 87.7474 21.707 87.2565 21.707 86.7656C21.707 86.4779 21.5208 86.2663 21.1484 86.1309C20.793 85.9954 20.4798 85.9277 20.209 85.9277C20.1413 85.9277 20.1074 85.8177 20.1074 85.5977C20.1074 85.3945 20.1413 85.2591 20.209 85.1914C20.8861 85.2253 21.4362 85.2591 21.8594 85.293C22.2995 85.3268 22.6042 85.3353 22.7734 85.3184L25.4141 85.1914C25.4479 85.2591 25.4564 85.403 25.4395 85.623C25.4395 85.8262 25.4141 85.9277 25.3633 85.9277C25.2617 85.9277 25.0924 85.9616 24.8555 86.0293C24.6185 86.0801 24.3815 86.1647 24.1445 86.2832C23.9076 86.3848 23.7298 86.5033 23.6113 86.6387C23.459 86.8249 23.2559 87.138 23.002 87.5781C22.765 88.0013 22.4772 88.5599 22.1387 89.2539L20.1836 93.2656L22.9512 98.9531C23.0358 99.1055 23.1374 99.0632 23.2559 98.8262L27.8008 88.3906C27.9531 88.0521 28.0632 87.7474 28.1309 87.4766C28.1986 87.2057 28.2324 86.9772 28.2324 86.791C28.2324 86.5033 28.0547 86.2917 27.6992 86.1562C27.3607 86.0039 27.056 85.9277 26.7852 85.9277C26.7174 85.9277 26.6836 85.8177 26.6836 85.5977C26.6836 85.3945 26.7174 85.2591 26.7852 85.1914C27.4622 85.2253 28.0124 85.2591 28.4355 85.293C28.8757 85.3099 29.1888 85.3184 29.375 85.3184C29.8659 85.3184 30.3229 85.3014 30.7461 85.2676C31.1693 85.2337 31.5501 85.2083 31.8887 85.1914C31.9225 85.3268 31.9395 85.4538 31.9395 85.5723C31.9395 85.8092 31.9056 85.9277 31.8379 85.9277C31.6686 85.9277 31.3978 85.9954 31.0254 86.1309C30.653 86.2493 30.3737 86.4186 30.1875 86.6387C29.7135 87.2142 29.2227 88.069 28.7148 89.2031L23.332 101.391C23.0951 101.932 22.765 102.203 22.3418 102.203C22.2402 102.203 22.1641 102.161 22.1133 102.076L19.0156 95.7285L16.2734 101.391C16.0195 101.932 15.6895 102.203 15.2832 102.203ZM33.6589 102.076C33.5912 102.008 33.5573 101.865 33.5573 101.645C33.5573 101.441 33.5912 101.34 33.6589 101.34C33.7943 101.34 33.9805 101.314 34.2175 101.264C34.4545 101.213 34.6745 101.145 34.8777 101.061C35.0808 100.976 35.1908 100.9 35.2077 100.832C35.3262 100.375 35.3855 99.791 35.3855 99.0801V88.0605C35.3855 87.485 35.3347 86.9434 35.2331 86.4355C35.1654 86.1647 34.7338 86.0293 33.9382 86.0293H33.7097C33.6081 86.0293 33.5573 85.9362 33.5573 85.75C33.5573 85.4792 33.6081 85.3438 33.7097 85.3438C34.573 85.2591 35.3008 85.1237 35.8933 84.9375C36.4857 84.7344 36.892 84.5736 37.112 84.4551L37.239 84.3789H37.2898C37.3575 84.3789 37.4252 84.4297 37.4929 84.5312C37.5606 84.6159 37.6029 84.7005 37.6198 84.7852C37.4336 85.3438 37.3405 86.0801 37.3405 86.9941V92.5547C37.3405 92.6224 37.3575 92.6562 37.3913 92.6562C37.4083 92.6562 37.4336 92.6393 37.4675 92.6055C37.7214 92.3346 38.043 92.0723 38.4323 91.8184C38.8386 91.5475 39.2702 91.3275 39.7273 91.1582C40.1843 90.972 40.6159 90.8789 41.0222 90.8789C42.1563 90.8789 42.9688 91.2852 43.4597 92.0977C43.9506 92.9102 44.196 94.1628 44.196 95.8555V98.5977C44.196 99.0716 44.2129 99.4948 44.2468 99.8672C44.2807 100.24 44.3314 100.561 44.3991 100.832C44.433 100.9 44.5515 100.976 44.7546 101.061C44.9577 101.145 45.1778 101.213 45.4148 101.264C45.6517 101.314 45.821 101.34 45.9226 101.34C45.9734 101.34 46.0072 101.441 46.0241 101.645C46.0411 101.848 46.0326 101.992 45.9988 102.076L43.282 101.949L40.6159 102.076C40.5482 102.008 40.5144 101.865 40.5144 101.645C40.5144 101.441 40.5482 101.34 40.6159 101.34C40.7514 101.34 40.9291 101.314 41.1491 101.264C41.3692 101.213 41.5723 101.145 41.7585 101.061C41.9447 100.976 42.0463 100.9 42.0632 100.832C42.1309 100.595 42.1732 100.324 42.1902 100.02C42.224 99.7148 42.2409 99.3932 42.2409 99.0547V96.3633C42.2409 95.3138 42.1478 94.5098 41.9616 93.9512C41.7754 93.3757 41.4877 92.9779 41.0984 92.7578C40.709 92.5378 40.2097 92.4277 39.6003 92.4277C39.2618 92.4277 38.9148 92.5293 38.5593 92.7324C38.2208 92.9186 37.933 93.1387 37.696 93.3926C37.459 93.6465 37.3405 93.875 37.3405 94.0781V98.5723C37.3405 99.0632 37.3575 99.4948 37.3913 99.8672C37.4252 100.24 37.476 100.561 37.5437 100.832C37.5775 100.9 37.696 100.976 37.8991 101.061C38.1023 101.145 38.3223 101.213 38.5593 101.264C38.7963 101.314 38.9655 101.34 39.0671 101.34C39.1179 101.34 39.1517 101.441 39.1687 101.645C39.1856 101.848 39.1771 101.992 39.1433 102.076L36.4265 101.949L33.6589 102.076ZM51.019 102.178C50.2403 102.178 49.5971 101.975 49.0893 101.568C48.5815 101.145 48.3276 100.519 48.3276 99.6895C48.3276 98.6738 48.9877 97.8275 50.308 97.1504C50.8836 96.8626 51.4506 96.6341 52.0092 96.4648C52.5847 96.2956 53.1603 96.1009 53.7358 95.8809C53.8881 95.8301 53.9643 95.7031 53.9643 95.5V93.5957C53.9643 93.054 53.795 92.6393 53.4565 92.3516C53.1179 92.0469 52.7117 91.8945 52.2377 91.8945C51.7299 91.8945 51.3067 92.0723 50.9682 92.4277C50.6297 92.7663 50.4604 93.2148 50.4604 93.7734C50.4604 94.3659 50.1134 94.6621 49.4194 94.6621C48.9285 94.6621 48.5984 94.5013 48.4291 94.1797C48.4291 93.8242 48.573 93.4603 48.8608 93.0879C49.1655 92.6986 49.5548 92.3431 50.0288 92.0215C50.5027 91.6999 51.019 91.4375 51.5776 91.2344C52.1531 91.0312 52.7202 90.9297 53.2788 90.9297C54.2097 90.9297 54.8784 91.1582 55.2846 91.6152C55.6909 92.0553 55.894 92.7747 55.894 93.7734V99.6387C55.894 99.9941 55.9871 100.29 56.1733 100.527C56.3595 100.764 56.6134 100.883 56.935 100.883C57.1551 100.883 57.4513 100.764 57.8237 100.527C57.8914 100.527 57.9252 100.595 57.9252 100.73C57.9252 100.951 57.8829 101.128 57.7983 101.264C57.1043 101.856 56.5118 102.152 56.0209 102.152C55.6316 102.152 55.2592 101.992 54.9038 101.67C54.5483 101.348 54.3028 101.01 54.1674 100.654C54.0828 100.722 53.9728 100.815 53.8373 100.934C53.7189 101.035 53.6173 101.12 53.5327 101.188C53.1772 101.458 52.7879 101.695 52.3647 101.898C51.9584 102.085 51.5099 102.178 51.019 102.178ZM51.9838 100.73C52.4578 100.73 52.9064 100.595 53.3295 100.324C53.7527 100.053 53.9643 99.7656 53.9643 99.4609V96.8457C53.5242 97.015 53.101 97.1673 52.6948 97.3027C52.3054 97.4382 51.9923 97.5482 51.7553 97.6328C51.4506 97.7513 51.1544 97.9629 50.8666 98.2676C50.5958 98.5723 50.4604 98.9193 50.4604 99.3086C50.4604 99.8164 50.6127 100.18 50.9174 100.4C51.239 100.62 51.5945 100.73 51.9838 100.73ZM63.8595 102.178C63.0132 102.178 62.3022 101.898 61.7267 101.34C61.1681 100.781 60.8888 99.9857 60.8888 98.9531V92.5039H59.4162C59.3315 92.5039 59.2892 92.3262 59.2892 91.9707C59.2892 91.8691 59.2977 91.8099 59.3146 91.793C59.8224 91.556 60.3556 91.1074 60.9142 90.4473C61.3035 89.9902 61.5913 89.5924 61.7775 89.2539C61.9806 88.9154 62.0822 88.7122 62.0822 88.6445C62.59 88.6445 62.8439 88.6868 62.8439 88.7715V91.2852L64.8498 91.3105H66.2716C66.4071 91.3105 66.4748 91.3867 66.4748 91.5391C66.4748 91.8607 66.3901 92.1823 66.2209 92.5039H62.8439V98.7246C62.8439 99.4017 63.0132 99.9434 63.3517 100.35C63.7072 100.756 64.1642 100.959 64.7228 100.959C65.2476 100.959 65.7723 100.798 66.297 100.477C66.3478 100.443 66.424 100.519 66.5255 100.705C66.6271 100.874 66.6694 100.967 66.6525 100.984C66.3986 101.255 66.0093 101.526 65.4845 101.797C64.9598 102.051 64.4181 102.178 63.8595 102.178ZM72.0536 102.279C71.5289 102.279 71.0549 102.22 70.6317 102.102C70.2085 101.983 69.6923 101.882 69.0829 101.797C69.0152 101.611 68.9475 101.357 68.8798 101.035C68.8121 100.714 68.7528 100.375 68.702 100.02C68.6682 99.6641 68.6512 99.3763 68.6512 99.1562C68.7867 99.0547 68.8882 99.0039 68.9559 99.0039C69.2098 99.0039 69.3453 99.0547 69.3622 99.1562C69.4299 99.4948 69.5992 99.8333 69.87 100.172C70.1408 100.51 70.4709 100.798 70.8602 101.035C71.2496 101.255 71.6473 101.365 72.0536 101.365C72.5953 101.365 73.0354 101.221 73.3739 100.934C73.7294 100.629 73.9071 100.197 73.9071 99.6387C73.9071 99.0462 73.6786 98.5553 73.2216 98.166C72.8661 97.8783 72.5614 97.6751 72.3075 97.5566C72.0705 97.4212 71.8335 97.3027 71.5966 97.2012C71.3765 97.0827 71.0972 96.9219 70.7587 96.7188C69.4384 95.957 68.7782 95.0514 68.7782 94.002C68.7782 93.3926 68.9475 92.8594 69.286 92.4023C69.6246 91.9284 70.0731 91.5645 70.6317 91.3105C71.2072 91.0397 71.8166 90.9043 72.4598 90.9043C72.646 90.9043 72.8576 90.9212 73.0946 90.9551C73.3316 90.972 73.594 90.9974 73.8817 91.0312C74.1695 91.082 74.4065 91.1243 74.5927 91.1582C74.7789 91.1921 74.9312 91.2174 75.0497 91.2344C75.2359 92.013 75.3374 92.8763 75.3544 93.8242C75.3544 93.9089 75.2443 93.9512 75.0243 93.9512C74.7873 93.9512 74.6604 93.8919 74.6434 93.7734C74.5588 93.2995 74.3134 92.8509 73.9071 92.4277C73.5178 92.0046 73.0692 91.793 72.5614 91.793C71.3427 91.793 70.7333 92.2923 70.7333 93.291C70.7333 93.5449 70.7587 93.7734 70.8095 93.9766C70.8772 94.1628 71.021 94.3405 71.2411 94.5098C71.7658 94.916 72.3837 95.3223 73.0946 95.7285C73.8225 96.1348 74.4234 96.5156 74.8973 96.8711C75.6083 97.4128 75.9637 98.0475 75.9637 98.7754C75.9637 99.4355 75.786 100.036 75.4305 100.578C75.0751 101.103 74.6011 101.518 74.0087 101.822C73.4162 102.127 72.7645 102.279 72.0536 102.279ZM81.1871 102.178C80.4085 102.178 79.7652 101.975 79.2574 101.568C78.7496 101.145 78.4957 100.519 78.4957 99.6895C78.4957 98.6738 79.1559 97.8275 80.4762 97.1504C81.0517 96.8626 81.6188 96.6341 82.1773 96.4648C82.7529 96.2956 83.3284 96.1009 83.9039 95.8809C84.0563 95.8301 84.1324 95.7031 84.1324 95.5V93.5957C84.1324 93.054 83.9632 92.6393 83.6246 92.3516C83.2861 92.0469 82.8798 91.8945 82.4059 91.8945C81.898 91.8945 81.4749 92.0723 81.1363 92.4277C80.7978 92.7663 80.6285 93.2148 80.6285 93.7734C80.6285 94.3659 80.2815 94.6621 79.5875 94.6621C79.0966 94.6621 78.7665 94.5013 78.5973 94.1797C78.5973 93.8242 78.7411 93.4603 79.0289 93.0879C79.3336 92.6986 79.7229 92.3431 80.1969 92.0215C80.6708 91.6999 81.1871 91.4375 81.7457 91.2344C82.3212 91.0312 82.8883 90.9297 83.4469 90.9297C84.3779 90.9297 85.0465 91.1582 85.4527 91.6152C85.859 92.0553 86.0621 92.7747 86.0621 93.7734V99.6387C86.0621 99.9941 86.1552 100.29 86.3414 100.527C86.5276 100.764 86.7815 100.883 87.1031 100.883C87.3232 100.883 87.6194 100.764 87.9918 100.527C88.0595 100.527 88.0934 100.595 88.0934 100.73C88.0934 100.951 88.051 101.128 87.9664 101.264C87.2724 101.856 86.6799 102.152 86.1891 102.152C85.7997 102.152 85.4273 101.992 85.0719 101.67C84.7164 101.348 84.471 101.01 84.3355 100.654C84.2509 100.722 84.1409 100.815 84.0055 100.934C83.887 101.035 83.7854 101.12 83.7008 101.188C83.3453 101.458 82.956 101.695 82.5328 101.898C82.1266 102.085 81.678 102.178 81.1871 102.178ZM82.152 100.73C82.6259 100.73 83.0745 100.595 83.4977 100.324C83.9208 100.053 84.1324 99.7656 84.1324 99.4609V96.8457C83.6923 97.015 83.2691 97.1673 82.8629 97.3027C82.4736 97.4382 82.1604 97.5482 81.9234 97.6328C81.6188 97.7513 81.3225 97.9629 81.0348 98.2676C80.7639 98.5723 80.6285 98.9193 80.6285 99.3086C80.6285 99.8164 80.7809 100.18 81.0855 100.4C81.4072 100.62 81.7626 100.73 82.152 100.73ZM89.5589 107.738C89.4912 107.671 89.4573 107.535 89.4573 107.332C89.4573 107.112 89.4912 107.002 89.5589 107.002C89.6943 107.002 89.8805 106.977 90.1175 106.926C90.3545 106.875 90.5745 106.807 90.7777 106.723C90.9808 106.638 91.0908 106.562 91.1077 106.494C91.1754 106.257 91.2178 105.986 91.2347 105.682C91.2685 105.377 91.2855 105.055 91.2855 104.717V94.2305C91.2855 93.5872 91.167 93.1302 90.93 92.8594C90.7607 92.6562 90.5576 92.5208 90.3206 92.4531C90.1006 92.3854 89.8974 92.3516 89.7113 92.3516C89.542 92.3346 89.4573 92.3092 89.4573 92.2754C89.4573 91.8691 89.5081 91.6576 89.6097 91.6406C91.404 91.3698 92.555 91.1582 93.0628 91.0059L93.2405 90.9551C93.3252 90.9551 93.359 91.0482 93.3421 91.2344C93.3252 91.4036 93.3083 91.5475 93.2913 91.666L93.2659 91.8184C93.4352 91.6999 93.6722 91.5729 93.9769 91.4375C94.2816 91.3021 94.6032 91.1836 94.9417 91.082C95.2972 90.9805 95.6019 90.9297 95.8558 90.9297C97.0068 90.9297 97.9632 91.1921 98.7249 91.7168C99.5036 92.2246 100.079 92.8763 100.451 93.6719C100.841 94.4505 101.035 95.2461 101.035 96.0586C101.035 96.8711 100.883 97.6497 100.578 98.3945C100.274 99.1224 99.859 99.7741 99.3343 100.35C98.8096 100.925 98.2086 101.382 97.5316 101.721C96.8714 102.042 96.1859 102.203 95.4749 102.203C94.9502 102.203 94.5524 102.161 94.2816 102.076C94.0107 102.008 93.6976 101.89 93.3421 101.721C93.2744 101.788 93.2405 101.898 93.2405 102.051V104.234C93.2405 104.725 93.2575 105.157 93.2913 105.529C93.3252 105.902 93.376 106.223 93.4437 106.494C93.4775 106.562 93.596 106.638 93.7991 106.723C94.0023 106.807 94.2223 106.875 94.4593 106.926C94.6963 106.977 94.8655 107.002 94.9671 107.002C95.0179 107.002 95.0517 107.104 95.0687 107.307C95.0856 107.527 95.0771 107.671 95.0433 107.738L92.3265 107.611L89.5589 107.738ZM95.5765 101.137C96.2536 101.137 96.8291 100.934 97.303 100.527C97.7939 100.104 98.1748 99.5625 98.4456 98.9023C98.7165 98.2253 98.8519 97.5143 98.8519 96.7695C98.8519 95.8216 98.6741 95.0091 98.3187 94.332C97.9801 93.638 97.5231 93.1048 96.9476 92.7324C96.3721 92.36 95.7373 92.1738 95.0433 92.1738C94.5185 92.1738 94.0869 92.3177 93.7484 92.6055C93.4098 92.8763 93.2405 93.2741 93.2405 93.7988V99.5117C93.2405 99.9688 93.486 100.358 93.9769 100.68C94.4678 100.984 95.001 101.137 95.5765 101.137ZM103.314 107.738C103.246 107.671 103.212 107.535 103.212 107.332C103.212 107.112 103.246 107.002 103.314 107.002C103.449 107.002 103.635 106.977 103.872 106.926C104.109 106.875 104.329 106.807 104.532 106.723C104.735 106.638 104.845 106.562 104.862 106.494C104.93 106.257 104.972 105.986 104.989 105.682C105.023 105.377 105.04 105.055 105.04 104.717V94.2305C105.04 93.5872 104.922 93.1302 104.685 92.8594C104.515 92.6562 104.312 92.5208 104.075 92.4531C103.855 92.3854 103.652 92.3516 103.466 92.3516C103.297 92.3346 103.212 92.3092 103.212 92.2754C103.212 91.8691 103.263 91.6576 103.364 91.6406C105.159 91.3698 106.31 91.1582 106.817 91.0059L106.995 90.9551C107.08 90.9551 107.114 91.0482 107.097 91.2344C107.08 91.4036 107.063 91.5475 107.046 91.666L107.021 91.8184C107.19 91.6999 107.427 91.5729 107.731 91.4375C108.036 91.3021 108.358 91.1836 108.696 91.082C109.052 90.9805 109.356 90.9297 109.61 90.9297C110.761 90.9297 111.718 91.1921 112.48 91.7168C113.258 92.2246 113.834 92.8763 114.206 93.6719C114.595 94.4505 114.79 95.2461 114.79 96.0586C114.79 96.8711 114.638 97.6497 114.333 98.3945C114.028 99.1224 113.614 99.7741 113.089 100.35C112.564 100.925 111.963 101.382 111.286 101.721C110.626 102.042 109.94 102.203 109.23 102.203C108.705 102.203 108.307 102.161 108.036 102.076C107.765 102.008 107.452 101.89 107.097 101.721C107.029 101.788 106.995 101.898 106.995 102.051V104.234C106.995 104.725 107.012 105.157 107.046 105.529C107.08 105.902 107.131 106.223 107.198 106.494C107.232 106.562 107.351 106.638 107.554 106.723C107.757 106.807 107.977 106.875 108.214 106.926C108.451 106.977 108.62 107.002 108.722 107.002C108.772 107.002 108.806 107.104 108.823 107.307C108.84 107.527 108.832 107.671 108.798 107.738L106.081 107.611L103.314 107.738ZM109.331 101.137C110.008 101.137 110.584 100.934 111.058 100.527C111.549 100.104 111.929 99.5625 112.2 98.9023C112.471 98.2253 112.606 97.5143 112.606 96.7695C112.606 95.8216 112.429 95.0091 112.073 94.332C111.735 93.638 111.278 93.1048 110.702 92.7324C110.127 92.36 109.492 92.1738 108.798 92.1738C108.273 92.1738 107.842 92.3177 107.503 92.6055C107.164 92.8763 106.995 93.2741 106.995 93.7988V99.5117C106.995 99.9688 107.241 100.358 107.731 100.68C108.222 100.984 108.756 101.137 109.331 101.137Z" fill="#00D95F"/>
<path d="M38.5001 62.7803L41.5853 51.3191C39.0972 46.8544 38.3067 41.6445 39.3589 36.6454C40.411 31.6463 43.2353 27.1933 47.3134 24.1035C51.3914 21.0138 56.4498 19.4946 61.5602 19.8247C66.6706 20.1547 71.4903 22.312 75.1349 25.9005C78.7794 29.489 81.0043 34.2681 81.4013 39.3609C81.7984 44.4536 80.3409 49.5183 77.2963 53.6257C74.2517 57.733 69.8242 60.6075 64.8264 61.7216C59.8286 62.8356 54.5956 62.1146 50.0877 59.6909L38.5001 62.7803ZM50.6464 55.402L51.363 55.826C54.6282 57.7565 58.4419 58.5553 62.2097 58.0981C65.9776 57.6409 69.488 55.9533 72.1939 53.2982C74.8997 50.6432 76.6491 47.17 77.1694 43.4197C77.6897 39.6695 76.9516 35.8529 75.0702 32.5648C73.1887 29.2766 70.2697 26.7016 66.7679 25.241C63.2661 23.7804 59.3782 23.5162 55.7102 24.4897C52.0422 25.4632 48.8001 27.6196 46.489 30.623C44.178 33.6263 42.9279 37.3078 42.9335 41.0938C42.9304 44.233 43.8008 47.3114 45.4478 49.9864L45.8972 50.7255L44.1724 57.1224L50.6464 55.402Z" fill="#00D95F"/>
<path fill-rule="evenodd" clip-rule="evenodd" d="M68.0396 44.0367C67.6195 43.6987 67.1276 43.4609 66.6014 43.3412C66.0751 43.2215 65.5285 43.2232 65.003 43.3461C64.2135 43.6733 63.7034 44.909 63.1932 45.5269C63.0857 45.675 62.9276 45.7789 62.7487 45.8191C62.5698 45.8592 62.3823 45.8329 62.2215 45.745C59.3311 44.6158 56.9083 42.545 55.3467 39.869C55.2135 39.702 55.1505 39.49 55.1709 39.2776C55.1913 39.0652 55.2935 38.8689 55.4561 38.7302C56.025 38.1684 56.4428 37.4725 56.6707 36.7069C56.7213 35.8625 56.5273 35.0214 56.112 34.2838C55.7908 33.2499 55.1797 32.3292 54.3507 31.6306C53.9232 31.4388 53.4491 31.3745 52.9858 31.4454C52.5224 31.5163 52.0895 31.7195 51.7393 32.0304C51.1313 32.5536 50.6488 33.2061 50.3272 33.94C50.0055 34.6739 49.8531 35.4703 49.8809 36.2708C49.8828 36.7203 49.9399 37.1678 50.051 37.6035C50.333 38.6501 50.7668 39.6501 51.3385 40.5717C51.751 41.2777 52.201 41.9612 52.6867 42.6192C54.2652 44.7806 56.2493 46.6157 58.5291 48.0227C59.6731 48.7377 60.8957 49.319 62.1729 49.7552C63.4997 50.3551 64.9646 50.5853 66.412 50.4215C67.2367 50.297 68.018 49.9722 68.6873 49.4758C69.3566 48.9793 69.8933 48.3264 70.2502 47.5744C70.4599 47.1202 70.5235 46.6123 70.4324 46.1206C70.2138 45.115 68.8655 44.5213 68.0396 44.0367Z" fill="#00D95F"/>
</svg>
