<svg width="227" height="51" viewBox="0 0 227 51" fill="none" xmlns="http://www.w3.org/2000/svg">
<path d="M25.576 6.388C25.576 7.108 25.42 7.648 25.108 8.008C24.82 8.368 24.34 8.548 23.668 8.548C23.62 9.052 23.512 9.928 23.344 11.176C23.104 12.856 22.972 13.792 22.948 13.984C20.812 29.896 16.36 37.852 9.592 37.852C7.6 37.852 6.04 37.288 4.912 36.16C3.808 35.032 3.256 33.616 3.256 31.912C3.256 28.864 4.552 26.176 7.144 23.848C9.736 21.496 13.144 19.552 17.368 18.016C17.632 16.312 17.836 14.788 17.98 13.444L18.628 8.008C17.188 7.864 15.844 7.792 14.596 7.792C11.26 7.792 8.8 8.116 7.216 8.764C5.632 9.412 4.84 10.468 4.84 11.932C4.84 12.652 5.08 13.432 5.56 14.272C5.704 14.512 5.776 14.764 5.776 15.028C5.776 15.532 5.512 15.988 4.984 16.396C4.48 16.78 3.928 16.972 3.328 16.972C2.56 16.972 1.972 16.648 1.564 16C0.892 14.896 0.556 13.612 0.556 12.148C0.556 6.388 5.596 3.508 15.676 3.508C18.604 3.508 21.22 3.796 23.524 4.372C24.892 4.708 25.576 5.38 25.576 6.388ZM10.06 34C11.236 34 12.412 33.112 13.588 31.336C14.764 29.56 15.796 26.452 16.684 22.012C10.828 24.58 7.9 27.724 7.9 31.444C7.9 32.26 8.092 32.896 8.476 33.352C8.86 33.784 9.388 34 10.06 34ZM28.9144 34.18C27.4264 34.18 26.2384 33.64 25.3504 32.56C24.4624 31.48 24.0184 30.064 24.0184 28.312C24.0184 26.392 24.4624 24.58 25.3504 22.876C26.2384 21.148 27.4144 19.768 28.8784 18.736C30.3664 17.68 31.9384 17.152 33.5944 17.152C34.1224 17.152 34.4704 17.26 34.6384 17.476C34.8304 17.668 34.9864 18.028 35.1064 18.556C35.6104 18.46 36.1384 18.412 36.6904 18.412C37.8664 18.412 38.4544 18.832 38.4544 19.672C38.4544 20.176 38.2744 21.376 37.9144 23.272C37.3624 26.032 37.0864 27.952 37.0864 29.032C37.0864 29.392 37.1704 29.68 37.3384 29.896C37.5304 30.112 37.7704 30.22 38.0584 30.22C38.5144 30.22 39.0664 29.932 39.7144 29.356C40.3624 28.756 41.2384 27.796 42.3424 26.476C42.6304 26.14 42.9544 25.972 43.3144 25.972C43.6264 25.972 43.8664 26.116 44.0344 26.404C44.2264 26.692 44.3224 27.088 44.3224 27.592C44.3224 28.552 44.0944 29.296 43.6384 29.824C42.6544 31.048 41.6104 32.08 40.5064 32.92C39.4024 33.76 38.3344 34.18 37.3024 34.18C36.5104 34.18 35.7784 33.916 35.1064 33.388C34.4584 32.836 33.9664 32.092 33.6304 31.156C32.3824 33.172 30.8104 34.18 28.9144 34.18ZM30.2104 30.544C30.7384 30.544 31.2424 30.232 31.7224 29.608C32.2024 28.984 32.5504 28.156 32.7664 27.124L34.0984 20.5C33.0904 20.524 32.1544 20.908 31.2904 21.652C30.4504 22.372 29.7784 23.332 29.2744 24.532C28.7704 25.732 28.5184 27.004 28.5184 28.348C28.5184 29.092 28.6624 29.644 28.9504 30.004C29.2624 30.364 29.6824 30.544 30.2104 30.544ZM48.4526 34.972C47.2046 34.972 46.2446 34.684 45.5726 34.108C44.9246 33.532 44.6006 32.884 44.6006 32.164C44.6006 31.54 44.8286 31 45.2846 30.544C45.7406 30.088 46.4126 29.86 47.3006 29.86C47.6126 29.86 47.9726 29.896 48.3806 29.968C48.8126 30.016 49.1366 30.052 49.3526 30.076C49.3286 29.452 49.1846 28.864 48.9206 28.312C48.6806 27.76 48.3686 27.232 47.9846 26.728C47.6006 26.2 47.2406 25.744 46.9046 25.36C46.1606 26.776 45.4166 27.952 44.6726 28.888C43.9526 29.824 43.1606 30.712 42.2966 31.552C41.8646 31.984 41.4086 32.2 40.9286 32.2C40.5446 32.2 40.2326 32.068 39.9926 31.804C39.7526 31.516 39.6326 31.168 39.6326 30.76C39.6326 30.28 39.8006 29.836 40.1366 29.428L40.6046 28.852C41.9246 27.22 42.9206 25.876 43.5926 24.82C44.0006 24.124 44.4806 23.2 45.0326 22.048C45.5846 20.872 46.1246 19.66 46.6526 18.412C47.1086 17.356 48.0566 16.828 49.4966 16.828C50.1686 16.828 50.6366 16.888 50.9006 17.008C51.1646 17.128 51.2966 17.32 51.2966 17.584C51.2966 17.728 51.2486 17.956 51.1526 18.268C51.0566 18.58 50.9246 18.892 50.7566 19.204C50.3246 20.068 50.1086 20.8 50.1086 21.4C50.1086 21.76 50.2286 22.156 50.4686 22.588C50.7326 23.02 51.1286 23.56 51.6566 24.208C52.4246 25.216 53.0006 26.08 53.3846 26.8C53.7926 27.496 53.9966 28.264 53.9966 29.104C53.9966 29.344 53.9726 29.68 53.9246 30.112C55.1006 29.656 56.4806 28.444 58.0646 26.476C58.3526 26.14 58.6766 25.972 59.0366 25.972C59.3486 25.972 59.5886 26.116 59.7566 26.404C59.9486 26.692 60.0446 27.088 60.0446 27.592C60.0446 28.504 59.8166 29.248 59.3606 29.824C58.1606 31.312 57.0086 32.332 55.9046 32.884C54.8246 33.412 53.4806 33.7 51.8726 33.748C50.9126 34.564 49.7726 34.972 48.4526 34.972ZM75.8399 22.948C76.1519 22.948 76.3919 23.104 76.5599 23.416C76.7279 23.728 76.8119 24.124 76.8119 24.604C76.8119 25.756 76.4639 26.44 75.7679 26.656C74.3279 27.16 72.7439 27.448 71.0159 27.52C70.5599 29.536 69.6599 31.156 68.3159 32.38C66.9719 33.58 65.4479 34.18 63.7439 34.18C62.3039 34.18 61.0679 33.832 60.0359 33.136C59.0279 32.44 58.2599 31.516 57.7319 30.364C57.2039 29.212 56.9399 27.964 56.9399 26.62C56.9399 24.796 57.2879 23.176 57.9839 21.76C58.6799 20.32 59.6399 19.204 60.8639 18.412C62.0879 17.596 63.4439 17.188 64.9319 17.188C66.7559 17.188 68.2199 17.824 69.3239 19.096C70.4519 20.344 71.1119 21.892 71.3039 23.74C72.4319 23.668 73.7759 23.428 75.3359 23.02C75.5279 22.972 75.6959 22.948 75.8399 22.948ZM64.0319 30.364C64.7999 30.364 65.4599 30.052 66.0119 29.428C66.5879 28.804 66.9719 27.904 67.1639 26.728C66.4199 26.224 65.8439 25.564 65.4359 24.748C65.0519 23.932 64.8599 23.068 64.8599 22.156C64.8599 21.772 64.8959 21.388 64.9679 21.004H64.7879C63.8279 21.004 63.0239 21.472 62.3759 22.408C61.7519 23.32 61.4399 24.616 61.4399 26.296C61.4399 27.616 61.6919 28.624 62.1959 29.32C62.7239 30.016 63.3359 30.364 64.0319 30.364ZM76.6381 34.18C75.7261 34.18 75.0781 33.7 74.6941 32.74C74.3341 31.78 74.1541 30.244 74.1541 28.132C74.1541 25.012 74.5981 22.048 75.4861 19.24C75.7021 18.544 76.0501 18.04 76.5301 17.728C77.0341 17.392 77.7301 17.224 78.6181 17.224C79.0981 17.224 79.4341 17.284 79.6261 17.404C79.8181 17.524 79.9141 17.752 79.9141 18.088C79.9141 18.472 79.7341 19.336 79.3741 20.68C79.1341 21.64 78.9421 22.48 78.7981 23.2C78.6541 23.92 78.5341 24.808 78.4381 25.864C79.2301 23.8 80.1181 22.12 81.1021 20.824C82.0861 19.528 83.0461 18.604 83.9821 18.052C84.9421 17.5 85.8181 17.224 86.6101 17.224C87.3781 17.224 87.9541 17.428 88.3381 17.836C88.7461 18.22 88.9501 18.796 88.9501 19.564C88.9501 20.188 88.8181 21.364 88.5541 23.092C88.3141 24.556 88.1221 25.948 87.9781 27.268C87.8341 28.564 87.7621 30.016 87.7621 31.624C87.7621 32.536 87.5701 33.196 87.1861 33.604C86.8261 33.988 86.2261 34.18 85.3861 34.18C84.5941 34.18 84.0181 33.976 83.6581 33.568C83.2981 33.16 83.1181 32.548 83.1181 31.732C83.1181 30.772 83.2861 29.188 83.6221 26.98C83.9101 25.06 84.0541 23.836 84.0541 23.308C84.0541 22.924 83.9221 22.732 83.6581 22.732C83.3461 22.732 82.9021 23.14 82.3261 23.956C81.7741 24.748 81.1981 25.804 80.5981 27.124C80.0221 28.444 79.5541 29.836 79.1941 31.3C78.9301 32.428 78.6181 33.196 78.2581 33.604C77.9221 33.988 77.3821 34.18 76.6381 34.18ZM131.287 10.96C131.287 13 130.567 14.764 129.127 16.252C127.687 17.716 125.587 18.772 122.827 19.42C124.315 19.828 125.443 20.5 126.211 21.436C126.979 22.348 127.363 23.404 127.363 24.604C127.363 26.5 126.763 28.144 125.563 29.536C124.387 30.928 122.659 32.008 120.379 32.776C118.099 33.52 115.351 33.892 112.135 33.892C110.935 33.892 109.975 33.856 109.255 33.784C109.231 34.456 108.943 34.96 108.391 35.296C107.839 35.632 107.131 35.8 106.267 35.8C105.403 35.8 104.803 35.608 104.467 35.224C104.155 34.84 104.023 34.276 104.071 33.532C104.287 30.172 104.707 26.656 105.331 22.984C105.955 19.288 106.747 15.724 107.707 12.292C107.875 11.692 108.211 11.272 108.715 11.032C109.219 10.792 109.879 10.672 110.695 10.672C112.159 10.672 112.891 11.08 112.891 11.896C112.891 12.232 112.819 12.616 112.675 13.048C112.051 14.92 111.427 17.464 110.803 20.68C110.179 23.872 109.735 26.92 109.471 29.824C110.623 29.92 111.559 29.968 112.279 29.968C115.639 29.968 118.099 29.488 119.659 28.528C121.243 27.544 122.035 26.296 122.035 24.784C122.035 23.728 121.579 22.84 120.667 22.12C119.779 21.4 118.279 21.004 116.167 20.932C115.687 20.908 115.351 20.788 115.159 20.572C114.967 20.356 114.871 20.008 114.871 19.528C114.871 18.832 115.015 18.268 115.303 17.836C115.591 17.404 116.119 17.176 116.887 17.152C118.591 17.104 120.127 16.852 121.495 16.396C122.887 15.94 123.979 15.304 124.771 14.488C125.563 13.648 125.959 12.676 125.959 11.572C125.959 10.18 125.275 9.088 123.907 8.296C122.539 7.48 120.439 7.072 117.607 7.072C115.039 7.072 112.555 7.408 110.155 8.08C107.755 8.728 105.715 9.556 104.035 10.564C103.267 11.02 102.619 11.248 102.091 11.248C101.659 11.248 101.323 11.104 101.083 10.816C100.867 10.504 100.759 10.12 100.759 9.664C100.759 9.064 100.879 8.548 101.119 8.116C101.383 7.684 101.995 7.192 102.955 6.64C104.971 5.488 107.335 4.588 110.047 3.94C112.759 3.292 115.531 2.968 118.363 2.968C122.707 2.968 125.947 3.7 128.083 5.164C130.219 6.628 131.287 8.56 131.287 10.96ZM145.548 25.972C145.86 25.972 146.1 26.116 146.268 26.404C146.46 26.692 146.556 27.088 146.556 27.592C146.556 28.552 146.328 29.296 145.872 29.824C144.84 31.096 143.712 32.14 142.488 32.956C141.288 33.772 139.92 34.18 138.384 34.18C136.272 34.18 134.7 33.22 133.668 31.3C132.66 29.38 132.156 26.896 132.156 23.848C132.156 20.92 132.528 17.584 133.272 13.84C134.04 10.096 135.156 6.88 136.62 4.192C138.108 1.504 139.872 0.159998 141.912 0.159998C143.064 0.159998 143.964 0.699998 144.612 1.78C145.284 2.836 145.62 4.36 145.62 6.352C145.62 9.208 144.828 12.52 143.244 16.288C141.66 20.056 139.512 23.788 136.8 27.484C136.968 28.468 137.244 29.176 137.628 29.608C138.012 30.016 138.516 30.22 139.14 30.22C140.124 30.22 140.988 29.944 141.732 29.392C142.476 28.816 143.424 27.844 144.576 26.476C144.864 26.14 145.188 25.972 145.548 25.972ZM141.12 3.724C140.568 3.724 139.944 4.72 139.248 6.712C138.552 8.704 137.94 11.176 137.412 14.128C136.884 17.08 136.596 19.912 136.548 22.624C138.252 19.816 139.608 17.008 140.616 14.2C141.624 11.368 142.128 8.788 142.128 6.46C142.128 4.636 141.792 3.724 141.12 3.724ZM162.366 22.948C162.678 22.948 162.918 23.104 163.086 23.416C163.254 23.728 163.338 24.124 163.338 24.604C163.338 25.756 162.99 26.44 162.294 26.656C160.854 27.16 159.27 27.448 157.542 27.52C157.086 29.536 156.186 31.156 154.842 32.38C153.498 33.58 151.974 34.18 150.27 34.18C148.83 34.18 147.594 33.832 146.562 33.136C145.554 32.44 144.786 31.516 144.258 30.364C143.73 29.212 143.466 27.964 143.466 26.62C143.466 24.796 143.814 23.176 144.51 21.76C145.206 20.32 146.166 19.204 147.39 18.412C148.614 17.596 149.97 17.188 151.458 17.188C153.282 17.188 154.746 17.824 155.85 19.096C156.978 20.344 157.638 21.892 157.83 23.74C158.958 23.668 160.302 23.428 161.862 23.02C162.054 22.972 162.222 22.948 162.366 22.948ZM150.558 30.364C151.326 30.364 151.986 30.052 152.538 29.428C153.114 28.804 153.498 27.904 153.69 26.728C152.946 26.224 152.37 25.564 151.962 24.748C151.578 23.932 151.386 23.068 151.386 22.156C151.386 21.772 151.422 21.388 151.494 21.004H151.314C150.354 21.004 149.55 21.472 148.902 22.408C148.278 23.32 147.966 24.616 147.966 26.296C147.966 27.616 148.218 28.624 148.722 29.32C149.25 30.016 149.862 30.364 150.558 30.364ZM179.041 26.044C179.353 26.044 179.593 26.2 179.761 26.512C179.953 26.8 180.049 27.172 180.049 27.628C180.049 28.18 179.965 28.612 179.797 28.924C179.629 29.236 179.365 29.512 179.005 29.752C176.941 31.144 175.429 32.176 174.469 32.848L172.165 34.396C171.253 39.364 170.053 43.264 168.565 46.096C167.101 48.952 165.229 50.38 162.949 50.38C161.725 50.38 160.729 49.996 159.961 49.228C159.193 48.484 158.809 47.5 158.809 46.276C158.809 44.572 159.481 42.736 160.825 40.768C162.169 38.824 164.689 36.424 168.385 33.568L168.601 32.164C168.193 32.812 167.653 33.316 166.981 33.676C166.333 34.012 165.685 34.18 165.037 34.18C163.549 34.18 162.361 33.64 161.473 32.56C160.585 31.48 160.141 30.064 160.141 28.312C160.141 26.392 160.585 24.58 161.473 22.876C162.361 21.148 163.537 19.768 165.001 18.736C166.489 17.68 168.061 17.152 169.717 17.152C170.245 17.152 170.593 17.26 170.761 17.476C170.953 17.668 171.109 18.028 171.229 18.556C171.685 18.46 172.213 18.412 172.813 18.412C173.413 18.412 173.833 18.508 174.073 18.7C174.337 18.868 174.469 19.216 174.469 19.744C174.469 20.032 174.457 20.26 174.433 20.428C174.337 21.172 174.037 23.056 173.533 26.08C173.437 26.656 173.329 27.292 173.209 27.988C173.113 28.66 173.005 29.38 172.885 30.148C174.733 28.708 176.509 27.436 178.213 26.332C178.525 26.14 178.801 26.044 179.041 26.044ZM166.333 30.544C166.885 30.544 167.413 30.208 167.917 29.536C168.421 28.864 168.781 27.904 168.997 26.656L170.149 20.5C169.165 20.524 168.253 20.908 167.413 21.652C166.573 22.372 165.901 23.332 165.397 24.532C164.893 25.732 164.641 27.004 164.641 28.348C164.641 29.092 164.785 29.644 165.073 30.004C165.385 30.364 165.805 30.544 166.333 30.544ZM163.345 46.888C163.945 46.888 164.617 46.168 165.361 44.728C166.129 43.288 166.861 40.996 167.557 37.852C165.709 39.436 164.377 40.864 163.561 42.136C162.745 43.408 162.337 44.524 162.337 45.484C162.337 45.892 162.409 46.228 162.553 46.492C162.721 46.756 162.985 46.888 163.345 46.888ZM196.276 26.044C196.588 26.044 196.828 26.2 196.996 26.512C197.188 26.8 197.284 27.172 197.284 27.628C197.284 28.18 197.2 28.612 197.032 28.924C196.864 29.236 196.6 29.512 196.24 29.752C194.176 31.144 192.664 32.176 191.704 32.848L189.4 34.396C188.488 39.364 187.288 43.264 185.8 46.096C184.336 48.952 182.464 50.38 180.184 50.38C178.96 50.38 177.964 49.996 177.196 49.228C176.428 48.484 176.044 47.5 176.044 46.276C176.044 44.572 176.716 42.736 178.06 40.768C179.404 38.824 181.924 36.424 185.62 33.568L185.836 32.164C185.428 32.812 184.888 33.316 184.216 33.676C183.568 34.012 182.92 34.18 182.272 34.18C180.784 34.18 179.596 33.64 178.708 32.56C177.82 31.48 177.376 30.064 177.376 28.312C177.376 26.392 177.82 24.58 178.708 22.876C179.596 21.148 180.772 19.768 182.236 18.736C183.724 17.68 185.296 17.152 186.952 17.152C187.48 17.152 187.828 17.26 187.996 17.476C188.188 17.668 188.344 18.028 188.464 18.556C188.92 18.46 189.448 18.412 190.048 18.412C190.648 18.412 191.068 18.508 191.308 18.7C191.572 18.868 191.704 19.216 191.704 19.744C191.704 20.032 191.692 20.26 191.668 20.428C191.572 21.172 191.272 23.056 190.768 26.08C190.672 26.656 190.564 27.292 190.444 27.988C190.348 28.66 190.24 29.38 190.12 30.148C191.968 28.708 193.744 27.436 195.448 26.332C195.76 26.14 196.036 26.044 196.276 26.044ZM183.568 30.544C184.12 30.544 184.648 30.208 185.152 29.536C185.656 28.864 186.016 27.904 186.232 26.656L187.384 20.5C186.4 20.524 185.488 20.908 184.648 21.652C183.808 22.372 183.136 23.332 182.632 24.532C182.128 25.732 181.876 27.004 181.876 28.348C181.876 29.092 182.02 29.644 182.308 30.004C182.62 30.364 183.04 30.544 183.568 30.544ZM180.58 46.888C181.18 46.888 181.852 46.168 182.596 44.728C183.364 43.288 184.096 40.996 184.792 37.852C182.944 39.436 181.612 40.864 180.796 42.136C179.98 43.408 179.572 44.524 179.572 45.484C179.572 45.892 179.644 46.228 179.788 46.492C179.956 46.756 180.22 46.888 180.58 46.888ZM211.486 25.972C211.798 25.972 212.038 26.116 212.206 26.404C212.398 26.692 212.494 27.088 212.494 27.592C212.494 28.552 212.266 29.296 211.81 29.824C210.922 30.904 209.662 31.9 208.03 32.812C206.422 33.724 204.694 34.18 202.846 34.18C200.326 34.18 198.37 33.496 196.978 32.128C195.586 30.76 194.89 28.888 194.89 26.512C194.89 24.856 195.238 23.32 195.934 21.904C196.63 20.464 197.59 19.324 198.814 18.484C200.062 17.644 201.466 17.224 203.026 17.224C204.418 17.224 205.534 17.644 206.374 18.484C207.214 19.3 207.634 20.416 207.634 21.832C207.634 23.488 207.034 24.916 205.834 26.116C204.658 27.292 202.654 28.228 199.822 28.924C200.422 30.028 201.562 30.58 203.242 30.58C204.322 30.58 205.546 30.208 206.914 29.464C208.306 28.696 209.506 27.7 210.514 26.476C210.802 26.14 211.126 25.972 211.486 25.972ZM202.414 20.752C201.526 20.752 200.77 21.268 200.146 22.3C199.546 23.332 199.246 24.58 199.246 26.044V26.116C200.662 25.78 201.778 25.276 202.594 24.604C203.41 23.932 203.818 23.152 203.818 22.264C203.818 21.808 203.686 21.448 203.422 21.184C203.182 20.896 202.846 20.752 202.414 20.752ZM224.467 22.156C224.995 22.156 225.439 22.348 225.799 22.732C226.183 23.092 226.375 23.548 226.375 24.1C226.375 24.412 226.303 24.748 226.159 25.108C225.775 25.996 225.235 26.74 224.539 27.34C223.843 27.94 223.075 28.24 222.235 28.24C221.563 28.24 220.987 28 220.507 27.52C220.051 27.04 219.823 26.392 219.823 25.576C219.823 25.12 219.847 24.628 219.895 24.1C219.943 23.716 219.967 23.452 219.967 23.308C219.967 23.116 219.919 22.972 219.823 22.876C219.751 22.78 219.655 22.732 219.535 22.732C219.199 22.732 218.743 23.14 218.167 23.956C217.591 24.748 217.015 25.804 216.439 27.124C215.863 28.444 215.395 29.836 215.035 31.3C214.771 32.452 214.471 33.22 214.135 33.604C213.799 33.988 213.247 34.18 212.479 34.18C211.567 34.18 210.919 33.7 210.535 32.74C210.175 31.78 209.995 30.244 209.995 28.132C209.995 25.012 210.439 22.048 211.327 19.24C211.543 18.544 211.891 18.04 212.371 17.728C212.875 17.392 213.571 17.224 214.459 17.224C214.939 17.224 215.275 17.284 215.467 17.404C215.659 17.524 215.755 17.752 215.755 18.088C215.755 18.472 215.575 19.336 215.215 20.68C214.975 21.64 214.783 22.48 214.639 23.2C214.495 23.92 214.375 24.808 214.279 25.864C215.071 23.8 215.959 22.12 216.943 20.824C217.927 19.528 218.887 18.604 219.823 18.052C220.759 17.5 221.611 17.224 222.379 17.224C223.075 17.224 223.603 17.428 223.963 17.836C224.347 18.22 224.539 18.796 224.539 19.564C224.539 20.02 224.407 20.884 224.143 22.156H224.467Z" fill="black"/>
</svg>
